<?xml version="1.0" encoding="UTF-8"?><svg id="Layer_1" xmlns="http://www.w3.org/2000/svg" viewBox="0 0 1969.9 2665.6"><defs><style>.cls-1{fill:#662d91;}.cls-2{fill:#885fc9;}</style></defs><g><path class="cls-1" d="M0,954.32v1708.96c272.56-127.94,446.61-401.9,446.61-702.99v-89.97C109.37,1587.78,0,954.32,0,954.32Z"/><path class="cls-1" d="M1808.67,440.67c-8.79-15.75-63.82-96.97-79.86-105.23-143.38-73.83-316.03-122.74-524.95-136.48-268.74-23.54-751.34,186.42-766.75,696.12,70.64-369.14,335.94-443.39,517.91-454.09,284.69-16.75,441.18,111.73,517.73,236.13,71.77,117.23,119.51,451.74-36.22,644.07-141.94,175.3-116.45,432.5,53.3,581.04h0s798.94-601.18,318.84-1461.56Z"/></g><g><path class="cls-2" d="M788.6,1570.17c-341.79-280.27-381.67-535.21-319.79-746.6C698.31,39.58,1625.47,354.97,1811.61,445.97,1626.1,93.89,1125.67-37.49,829.62,9.03,564.65,50.66,360.22,180.22,209.84,362.51c-578.77,792.96,223.31,1513,223.31,1513,0,0,474.89,434.38,648.24,601.5,231.8,223.48,888.53,186.28,888.53,186.28,0,0-725.57-719.42-1181.3-1093.11Z"/><circle class="cls-2" cx="993.08" cy="992.05" r="377.86"/></g></svg>