<?xml version="1.0" encoding="UTF-8" standalone="no"?>
<svg
   xmlns:dc="http://purl.org/dc/elements/1.1/"
   xmlns:cc="http://creativecommons.org/ns#"
   xmlns:rdf="http://www.w3.org/1999/02/22-rdf-syntax-ns#"
   xmlns:svg="http://www.w3.org/2000/svg"
   xmlns="http://www.w3.org/2000/svg"
   xmlns:sodipodi="http://sodipodi.sourceforge.net/DTD/sodipodi-0.dtd"
   xmlns:inkscape="http://www.inkscape.org/namespaces/inkscape"
   viewBox="0 0 1000.00003 400.00001"
   version="1.1"
   id="svg3977"
   sodipodi:docname="Rexroth-Logo_RGB.svg"
   inkscape:version="0.92.0 r15299">
  <metadata
     id="metadata3981">
    <rdf:RDF>
      <cc:Work
         rdf:about="">
        <dc:format>image/svg+xml</dc:format>
        <dc:type
           rdf:resource="http://purl.org/dc/dcmitype/StillImage" />
        <dc:title>Rexroth-Logo_RGB</dc:title>
      </cc:Work>
    </rdf:RDF>
  </metadata>
  <sodipodi:namedview
     pagecolor="#ffffff"
     bordercolor="#666666"
     borderopacity="1"
     objecttolerance="10"
     gridtolerance="10"
     guidetolerance="10"
     inkscape:pageopacity="0"
     inkscape:pageshadow="2"
     inkscape:window-width="958"
     inkscape:window-height="1138"
     id="namedview3979"
     showgrid="false"
     inkscape:zoom="0.35"
     inkscape:cx="500"
     inkscape:cy="200"
     inkscape:window-x="3833"
     inkscape:window-y="0"
     inkscape:window-maximized="0"
     inkscape:current-layer="svg3977" />
  <defs
     id="defs3899">
    <style
       id="style3897">
      .cls-1 {
        fill: #002b49;
      }

      .cls-2 {
        fill: #0cf;
      }

      .cls-3 {
        fill: #a3bac8;
      }

      .cls-4 {
        fill: #5a7c91;
      }

      .cls-5 {
        fill: #df0024;
      }
    </style>
    <pattern
       y="0"
       x="0"
       height="6"
       width="6"
       patternUnits="userSpaceOnUse"
       id="WMFhbasepattern" />
    <pattern
       y="0"
       x="0"
       height="6"
       width="6"
       patternUnits="userSpaceOnUse"
       id="WMFhbasepattern-0" />
    <pattern
       y="0"
       x="0"
       height="6"
       width="6"
       patternUnits="userSpaceOnUse"
       id="WMFhbasepattern-9" />
  </defs>
  <title
     id="title3901">Rexroth-Logo_RGB</title>
  <g
     id="g4596"
     transform="matrix(5.4196588,0,0,5.4196588,-11.887823,-9.5223238)">
    <path
       id="path4478"
       d="M 7.5968504,65.990551 H 12.585827 L 10.091339,58.733858 9.184252,57.6 9.0708661,56.390551 h 2.3055119 l 5.291339,14.815748 H 14.362205 L 13.190551,67.729134 H 6.992126 L 6.8409449,66.935433 Z"
       style="fill:#002b49;fill-opacity:1;fill-rule:nonzero;stroke:none"
       inkscape:connector-curvature="0" />
    <path
       id="path4480"
       d="M 6.992126,67.729134 5.8204724,71.206299 H 3.703937 l 5.3669291,-14.815748 1.3606299,1.36063 -0.340157,0.982677 -2.4944886,7.256693 0.4535433,0.944882 z"
       style="fill:#002b49;fill-opacity:1;fill-rule:nonzero;stroke:none"
       inkscape:connector-curvature="0" />
    <path
       id="path4482"
       d="m 28.044094,69.429921 h 4.346457 0.302362 0.340158 l 0.151181,-0.03779 0.151181,-0.0378 0.113386,-0.0378 0.151181,-0.0378 0.113386,-0.0378 0.113386,-0.0378 0.151181,-0.07559 0.113386,-0.0378 0.07559,-0.07559 0.113386,-0.07559 0.113386,-0.07559 0.07559,-0.07559 0.113386,-0.07559 0.07559,-0.07559 0.07559,-0.113385 0.07559,-0.07559 0.0378,-0.113386 0.07559,-0.113386 0.0378,-0.07559 0.07559,-0.151181 0.0378,-0.113386 0.0378,-0.113386 0.03779,-0.113386 v -0.151181 l 0.0378,-0.113386 v -0.151181 l 0.0378,-0.151181 v -0.151181 -0.151181 l -0.0378,-0.151181 V 66.48189 l -0.0378,-0.113386 v -0.151181 l -0.03779,-0.113386 -0.0378,-0.151181 -0.0378,-0.113386 -0.07559,-0.113386 -0.0378,-0.113386 -0.07559,-0.07559 -0.07559,-0.113386 -0.07559,-0.07559 -0.07559,-0.113385 -0.07559,-0.07559 -0.07559,-0.07559 -0.113385,-0.07559 -0.113386,-0.07559 -0.113386,-0.07559 -0.113386,-0.0378 -0.113386,-0.07559 -0.113386,-0.0378 -0.151181,-0.07559 -0.113386,-0.0378 -0.151181,-0.03779 -0.151181,-0.0378 h -0.151181 l -0.188976,-0.0378 -0.302362,-0.0378 H 32.201581 28.0441 L 27.628352,63.53384 28.0441,62.702344 h 4.044095 0.302362 l 0.264567,-0.0378 0.264567,-0.03779 0.226772,-0.07559 0.07559,-0.0378 0.113386,-0.03779 0.113386,-0.0378 0.07559,-0.07559 0.113386,-0.0378 0.07559,-0.07559 0.07559,-0.03779 0.07559,-0.07559 0.07559,-0.07559 0.07559,-0.07559 0.03779,-0.07559 0.07559,-0.113385 0.0378,-0.07559 0.07559,-0.113386 v -0.113386 l 0.07559,-0.07559 0.0378,-0.264567 0.0378,-0.226772 0.0378,-0.264567 v -0.302362 -0.264567 l -0.0378,-0.264567 v -0.113386 l -0.0378,-0.113385 -0.0378,-0.113386 -0.03779,-0.113386 -0.0378,-0.113386 -0.0378,-0.07559 -0.07559,-0.113386 -0.0378,-0.07559 -0.07559,-0.113386 -0.07559,-0.07559 -0.0378,-0.0378 -0.113386,-0.113386 -0.07559,-0.0378 -0.07559,-0.07559 -0.113386,-0.0378 -0.07559,-0.07559 -0.113386,-0.0378 -0.113386,-0.0378 -0.113386,-0.0378 -0.113385,-0.03779 -0.264567,-0.07559 -0.302363,-0.03779 -0.302362,-0.0378 h -0.340157 -3.741733 l -1.209448,-0.264567 -0.944882,-1.474016 h 5.896063 0.302362 l 0.264567,0.03779 h 0.302362 l 0.264567,0.0378 0.226772,0.0378 0.264567,0.0378 0.226771,0.0378 0.226772,0.07559 0.226772,0.07559 0.226771,0.07559 0.188977,0.07559 0.188976,0.07559 0.188976,0.113386 0.151181,0.07559 0.188977,0.113386 0.151181,0.151181 0.151181,0.113385 0.151181,0.113386 0.113386,0.151181 0.113386,0.151181 0.113386,0.151182 0.113385,0.188976 0.07559,0.151181 0.07559,0.188976 0.07559,0.188977 0.07559,0.188976 0.0378,0.188977 0.03779,0.226771 0.0378,0.188977 0.0378,0.226771 v 0.226772 0.264567 0.264567 0.264567 l -0.0378,0.264567 -0.07559,0.226771 -0.0378,0.226772 -0.07559,0.188976 -0.113386,0.226772 -0.113386,0.188976 -0.151181,0.188977 -0.151181,0.151181 -0.151181,0.188976 -0.188976,0.151181 -0.188977,0.151181 -0.226771,0.151182 -0.226772,0.151181 -0.264567,0.151181 0.340158,0.113386 0.340157,0.151181 0.264567,0.113385 0.302362,0.188977 0.113386,0.07559 0.113386,0.07559 0.113386,0.07559 0.113386,0.113385 0.113385,0.113386 0.113386,0.07559 0.113386,0.113386 0.07559,0.113385 0.07559,0.113386 0.07559,0.113386 0.07559,0.113386 0.07559,0.113386 0.03779,0.113385 0.07559,0.151182 0.03779,0.113385 0.0378,0.151182 0.0378,0.151181 0.0378,0.113385 0.03779,0.151182 v 0.151181 l 0.0378,0.340157 0.0378,0.302362 v 0.264567 l -0.0378,0.226772 -0.0378,0.264567 -0.03779,0.226772 -0.0378,0.188976 -0.0378,0.226772 -0.07559,0.188976 -0.07559,0.188976 -0.113386,0.226772 -0.07559,0.188976 -0.113386,0.151181 -0.113386,0.188977 -0.151181,0.151181 -0.151181,0.151181 -0.151181,0.151181 -0.151181,0.151181 -0.151181,0.113386 -0.188977,0.113386 -0.188976,0.113386 -0.188977,0.113386 -0.226771,0.113385 -0.188977,0.07559 -0.226771,0.07559 -0.226772,0.07559 -0.264567,0.07559 -0.226772,0.0378 -0.264566,0.07559 -0.264567,0.0378 -0.302363,0.0378 h -0.264567 l -0.302362,0.0378 H 32.23937 25.889764 l 1.058267,-1.549606 z"
       style="fill:#002b49;fill-opacity:1;fill-rule:nonzero;stroke:none"
       inkscape:connector-curvature="0" />
    <path
       id="path4484"
       d="M 25.889764,71.206299 V 56.390551 l 1.662992,0.680315 0.491338,1.058268 v 4.573228 l 0.718111,0.793701 -0.718111,0.944882 v 4.988976 l -0.340157,0.907087 z"
       style="fill:#002b49;fill-opacity:1;fill-rule:nonzero;stroke:none"
       inkscape:connector-curvature="0" />
    <path
       id="path4486"
       d="m 44.63622,69.656693 h 0.151182 0.188976 l 0.151181,-0.0378 0.188976,-0.0378 0.151182,-0.0378 0.151181,-0.0378 0.151181,-0.0378 0.113386,-0.07559 0.151181,-0.07559 0.151181,-0.07559 0.113386,-0.07559 0.113385,-0.113385 0.113386,-0.07559 0.113386,-0.113386 0.113386,-0.113386 0.113386,-0.113386 0.07559,-0.151181 0.07559,-0.113385 0.113386,-0.151182 0.07559,-0.151181 0.03779,-0.151181 0.07559,-0.151181 0.07559,-0.188976 0.03779,-0.188977 0.07559,-0.188976 0.0378,-0.188976 0.0378,-0.188977 v -0.188976 l 0.0378,-0.226772 v -0.188976 l 0.0378,-0.226772 V 65.76378 65.537008 l -0.0378,-0.188977 V 65.12126 l -0.0378,-0.188977 v -0.226771 l -0.0378,-0.188977 -0.0378,-0.151181 -0.07559,-0.188976 -0.03779,-0.188976 -0.0378,-0.151182 -0.07559,-0.151181 -0.07559,-0.188976 -0.07559,-0.113386 -0.07559,-0.151181 -0.113386,-0.151181 -0.07559,-0.113386 -0.113386,-0.151181 -0.07559,-0.113386 L 46.56378,62.588976 46.450394,62.513386 46.337008,62.4 46.185827,62.32441 46.072441,62.24882 45.92126,62.17323 l -0.113386,-0.07559 -0.151181,-0.0378 -0.151181,-0.0378 -0.151181,-0.0378 -0.151181,-0.03779 -0.151181,-0.0378 h -0.188977 -0.151181 l -0.755905,-0.869291 0.755905,-0.869291 h 0.264567 l 0.302362,0.03779 0.264567,0.0378 0.264567,0.0378 0.264567,0.0378 0.226772,0.07559 0.264567,0.07559 0.226771,0.113386 0.226772,0.113386 0.226771,0.113385 0.226772,0.113386 0.226772,0.151181 0.188976,0.151181 0.188977,0.151182 0.188976,0.188976 0.188976,0.188976 0.151181,0.188977 0.151182,0.188976 0.151181,0.226772 0.151181,0.188976 0.113386,0.226772 0.151181,0.264567 0.113385,0.226771 0.07559,0.226772 0.07559,0.264567 0.113385,0.264567 0.0378,0.264567 0.07559,0.302362 0.0378,0.264567 0.0378,0.302362 v 0.302362 l 0.0378,0.264567 -0.0378,0.340158 v 0.302362 l -0.0378,0.264567 -0.0378,0.302362 -0.07559,0.264567 -0.0378,0.302362 -0.113385,0.264567 -0.07559,0.264567 -0.113386,0.226772 -0.07559,0.264567 -0.151181,0.226771 -0.113386,0.226772 -0.151181,0.226772 -0.151181,0.226771 -0.151182,0.188977 -0.188976,0.188976 -0.151181,0.188976 -0.188976,0.151181 -0.188977,0.188977 -0.226771,0.151181 -0.188977,0.113386 -0.226772,0.151181 -0.226771,0.113386 -0.264567,0.113386 -0.226772,0.07559 -0.264567,0.113386 -0.226771,0.07559 -0.264567,0.0378 -0.264567,0.07559 H 45.20315 l -0.264567,0.0378 H 44.63622 l -0.755905,-0.869292 z"
       style="fill:#002b49;fill-opacity:1;fill-rule:nonzero;stroke:none"
       inkscape:connector-curvature="0" />
    <path
       id="path4488"
       d="m 44.63622,71.395276 h -0.264566 l -0.302363,-0.0378 h -0.264567 l -0.264567,-0.07559 -0.264566,-0.0378 -0.226772,-0.07559 -0.264567,-0.07559 L 42.55748,70.979528 42.330709,70.866142 42.103937,70.752756 41.877165,70.63937 41.650394,70.488189 41.461417,70.337008 41.234646,70.185827 41.083465,69.99685 40.894488,69.807874 40.705512,69.618898 40.554331,69.429921 40.40315,69.20315 l -0.151181,-0.188977 -0.113386,-0.226771 -0.113386,-0.264567 -0.113386,-0.226772 -0.113386,-0.226772 -0.07559,-0.264567 -0.07559,-0.264567 -0.07559,-0.264566 -0.0378,-0.302363 -0.07559,-0.264567 v -0.302362 l -0.0378,-0.302362 v -0.302362 -0.302362 l 0.0378,-0.302363 v -0.302362 l 0.07559,-0.264567 0.0378,-0.302362 0.07559,-0.264567 0.07559,-0.264567 0.07559,-0.264567 0.113386,-0.264567 0.113386,-0.226771 0.113386,-0.226772 0.151181,-0.226772 0.113386,-0.226771 0.151181,-0.226772 0.188976,-0.188976 0.151181,-0.188977 0.188977,-0.188976 0.188976,-0.188976 0.188976,-0.151182 0.226772,-0.151181 0.188976,-0.151181 0.226772,-0.113386 0.226772,-0.113385 0.264567,-0.113386 0.226771,-0.113386 0.226772,-0.07559 0.264567,-0.07559 0.302362,-0.0378 0.264567,-0.0378 0.264567,-0.0378 0.264567,-0.03779 h 0.302362 l 0.566929,0.869291 -0.566929,0.869291 h -0.188976 -0.151181 l -0.188977,0.0378 -0.151181,0.03779 -0.151181,0.0378 -0.151181,0.0378 -0.151181,0.0378 -0.151181,0.07559 -0.151181,0.07559 -0.113386,0.07559 -0.113386,0.07559 -0.151181,0.07559 -0.113386,0.113385 -0.113386,0.113386 -0.113386,0.113386 -0.07559,0.113386 -0.113386,0.113386 -0.07559,0.151181 -0.07559,0.151181 -0.07559,0.151181 -0.07559,0.151181 -0.07559,0.151181 -0.07559,0.151181 -0.0378,0.188977 -0.03779,0.188976 -0.0378,0.188976 -0.0378,0.188977 -0.0378,0.226771 -0.03779,0.188977 v 0.226771 0.226772 0.226772 0.226771 0.188977 0.226771 l 0.03779,0.188977 0.0378,0.226772 0.0378,0.188976 0.0378,0.188976 0.03779,0.188977 0.0378,0.151181 0.07559,0.188976 0.07559,0.151181 0.07559,0.151181 0.07559,0.151181 0.07559,0.151182 0.07559,0.113385 0.113386,0.151181 0.07559,0.113386 0.113386,0.113386 0.113386,0.113386 0.113386,0.07559 0.113386,0.113385 0.113385,0.07559 0.151182,0.07559 0.113385,0.07559 0.151181,0.07559 0.151182,0.0378 0.151181,0.0378 0.151181,0.0378 0.151181,0.0378 0.151181,0.0378 h 0.151181 0.188976 l 0.56693,0.831496 z"
       style="fill:#002b49;fill-opacity:1;fill-rule:nonzero;stroke:none"
       inkscape:connector-curvature="0" />
    <path
       id="path4490"
       d="M 58.922835,63.04252 58.771654,62.891339 58.620472,62.740157 58.469291,62.626772 58.31811,62.513386 58.166929,62.4 l -0.151181,-0.07559 -0.151181,-0.07559 -0.188976,-0.07559 -0.151182,-0.07559 -0.151181,-0.0378 -0.188976,-0.0378 -0.151181,-0.0378 -0.188977,-0.03779 -0.188976,-0.0378 h -0.188976 -0.188977 -0.226771 -0.226772 l -0.188976,0.0378 -0.151181,0.03779 -0.188977,0.0378 -0.151181,0.07559 -0.113386,0.03779 -0.151181,0.07559 -0.113386,0.07559 -0.07559,0.113386 -0.113386,0.07559 -0.03779,0.113385 -0.07559,0.113386 -0.0378,0.151181 v 0.113386 l -0.03779,0.151181 0.03779,0.151181 v 0.151181 l 0.0378,0.151182 0.0378,0.113385 0.07559,0.113386 0.07559,0.113386 0.113385,0.113386 0.113386,0.07559 0.151181,0.07559 0.188977,0.07559 0.188976,0.113385 0.226772,0.0378 0.226771,0.07559 0.302363,0.07559 0.302362,0.07559 0.340157,0.07559 0.415748,0.113386 0.377953,0.07559 0.340157,0.113386 0.302363,0.07559 0.264567,0.113385 0.264567,0.113386 0.226771,0.113386 0.226772,0.113386 0.151181,0.113386 0.151181,0.113386 0.151181,0.113385 0.113386,0.151181 0.151181,0.151182 0.113386,0.113385 0.07559,0.151181 0.07559,0.151182 0.113386,0.188976 0.07559,0.151181 0.0378,0.188976 0.0378,0.188977 0.03779,0.151181 0.0378,0.188976 v 0.188977 0.226771 0.188977 0.188976 0.188976 l -0.0378,0.151182 -0.07559,0.188976 -0.0378,0.151181 -0.07559,0.151181 -0.0378,0.151181 -0.07559,0.151181 -0.113386,0.151181 -0.07559,0.151182 -0.113386,0.113385 -0.113386,0.151181 -0.113386,0.113386 -0.113386,0.113386 -0.151181,0.113386 -0.113386,0.113386 -0.151181,0.113386 -0.188976,0.07559 -0.151181,0.113386 -0.188977,0.07559 -0.151181,0.0378 -0.188976,0.07559 -0.188976,0.07559 -0.226772,0.0378 -0.188976,0.0378 -0.226772,0.07559 -0.188976,0.03779 h -0.226772 l -0.226772,0.0378 h -0.264567 -0.226771 -0.377953 l -0.340158,-0.0378 -0.340157,-0.03779 -0.340158,-0.0378 -0.302362,-0.07559 -0.302362,-0.07559 -0.302362,-0.07559 -0.302362,-0.113386 -0.264567,-0.151181 -0.264567,-0.113386 -0.264567,-0.188976 -0.264567,-0.151181 -0.226772,-0.226772 -0.226771,-0.188976 -0.264567,-0.226772 -0.226772,-0.264567 1.398425,-1.285039 0.151181,0.188976 0.188977,0.188977 0.151181,0.188976 0.188976,0.151181 0.151181,0.113386 0.188977,0.151181 0.151181,0.113386 0.188976,0.07559 0.188977,0.07559 0.188976,0.07559 0.188976,0.07559 0.226772,0.0378 0.226772,0.0378 0.226771,0.0378 h 0.226772 0.264567 0.264567 l 0.264567,-0.0378 h 0.226771 l 0.226772,-0.07559 0.226772,-0.0378 0.188976,-0.07559 0.151181,-0.07559 0.151181,-0.07559 0.151181,-0.07559 0.113386,-0.113386 0.113386,-0.151181 0.07559,-0.113386 0.0378,-0.151181 0.07559,-0.151181 0.0378,-0.151181 v -0.188977 -0.151181 l -0.0378,-0.151181 -0.03779,-0.113386 -0.0378,-0.151181 -0.07559,-0.113386 -0.07559,-0.113386 -0.113386,-0.07559 -0.15119,-0.113384 -0.151181,-0.07559 -0.188977,-0.07559 -0.226771,-0.113386 -0.226772,-0.07559 -0.264567,-0.07559 -0.340157,-0.07559 -0.340158,-0.113385 -0.377953,-0.07559 -0.453543,-0.113386 -0.415748,-0.113386 -0.377953,-0.113385 -0.340157,-0.151182 -0.151181,-0.07559 -0.151181,-0.07559 -0.151182,-0.07559 -0.151181,-0.07559 -0.113385,-0.113386 -0.151182,-0.07559 -0.113385,-0.07559 -0.113386,-0.113386 -0.07559,-0.07559 -0.113386,-0.113386 -0.07559,-0.113386 -0.07559,-0.113386 -0.07559,-0.113385 -0.07559,-0.113386 -0.07559,-0.113386 -0.0378,-0.151181 -0.0378,-0.113386 -0.03779,-0.151181 -0.0378,-0.113386 -0.0378,-0.151181 V 63.76063 l -0.0378,-0.151181 V 63.458268 63.269291 63.11811 62.929134 l 0.0378,-0.151181 v -0.188977 l 0.07559,-0.151181 0.03779,-0.151181 0.0378,-0.151181 0.07559,-0.151181 0.07559,-0.151181 0.07559,-0.113386 0.07559,-0.151181 0.113385,-0.113386 0.113386,-0.113386 0.07559,-0.113386 0.151181,-0.113385 0.113386,-0.113386 0.113386,-0.113386 0.151181,-0.07559 0.151181,-0.07559 0.151181,-0.07559 0.151181,-0.07559 0.188976,-0.07559 0.151181,-0.07559 0.188977,-0.0378 0.188976,-0.07559 0.188977,-0.0378 0.188976,-0.0378 0.188976,-0.0378 h 0.226772 l 0.226772,-0.03779 h 0.188976 0.226772 0.302362 0.302362 l 0.302362,0.03779 0.264567,0.0378 0.264567,0.0378 0.226772,0.07559 0.264567,0.07559 0.226771,0.07559 0.226772,0.07559 0.226772,0.113386 0.226771,0.113385 0.188977,0.151182 0.226771,0.151181 0.188977,0.151181 0.226771,0.188976 0.188977,0.188976 z"
       style="fill:#002b49;fill-opacity:1;fill-rule:nonzero;stroke:none"
       inkscape:connector-curvature="0" />
    <path
       id="path4492"
       d="m 72.415748,68.749606 -0.188976,0.340158 -0.188977,0.302362 -0.226771,0.264567 -0.226772,0.264567 -0.113386,0.113386 -0.113386,0.151181 -0.151181,0.07559 -0.113386,0.113386 -0.151181,0.113386 -0.113386,0.07559 -0.151181,0.113385 -0.113385,0.07559 -0.151182,0.07559 -0.151181,0.07559 -0.151181,0.07559 -0.151181,0.0378 -0.151181,0.07559 -0.151181,0.0378 -0.151181,0.07559 -0.188977,0.0378 -0.340157,0.07559 -0.340158,0.03779 -0.377952,0.0378 h -0.377953 -0.264567 l -0.302362,-0.0378 h -0.264567 l -0.264567,-0.07559 -0.226772,-0.0378 -0.264567,-0.07559 -0.264567,-0.07559 -0.226771,-0.113385 -0.226772,-0.07559 -0.226772,-0.113386 -0.226771,-0.151181 -0.188977,-0.151181 -0.226771,-0.151181 -0.188977,-0.151181 -0.188976,-0.151181 -0.151181,-0.188977 -0.188976,-0.188976 -0.151182,-0.188976 -0.151181,-0.226772 -0.113385,-0.226772 -0.151182,-0.188976 -0.113385,-0.264567 -0.113386,-0.226772 -0.07559,-0.264567 -0.113386,-0.264567 -0.07559,-0.264567 -0.03779,-0.264566 -0.07559,-0.264567 -0.0378,-0.302363 -0.0378,-0.302362 v -0.302362 l -0.0378,-0.302362 0.0378,-0.302362 V 65.19685 l 0.0378,-0.302362 0.0378,-0.302362 0.0378,-0.264567 0.07559,-0.264567 0.07559,-0.302362 0.07559,-0.264567 0.113386,-0.226772 0.113386,-0.264567 0.113385,-0.226771 0.113386,-0.226772 0.151181,-0.226772 0.151181,-0.188976 0.151182,-0.226772 0.151181,-0.188976 0.188976,-0.151181 0.188976,-0.188976 0.188977,-0.151182 0.188976,-0.151181 0.188977,-0.151181 0.226771,-0.151181 0.226772,-0.113386 0.226772,-0.07559 0.226771,-0.113386 0.264567,-0.07559 0.226772,-0.07559 0.264567,-0.0378 0.264567,-0.0378 0.302362,-0.0378 0.264567,-0.03779 h 0.264567 0.377952 l 0.340158,0.03779 0.340157,0.0378 0.302363,0.07559 0.302362,0.07559 0.302362,0.113386 0.151181,0.07559 0.151181,0.03779 0.151181,0.07559 0.113386,0.07559 0.151181,0.07559 0.113386,0.07559 0.113386,0.113386 0.151181,0.07559 0.226772,0.226771 0.226771,0.226772 0.226772,0.226772 0.226772,0.264567 L 72,62.362205 72.188976,62.664567 70.450394,63.685039 70.299213,63.420472 70.148031,63.193701 70.034646,63.004724 69.883465,62.815748 69.732283,62.664567 69.581102,62.513386 69.467717,62.4 l -0.151182,-0.113386 -0.151181,-0.113386 -0.151181,-0.07559 -0.151181,-0.07559 -0.188976,-0.0378 -0.151181,-0.03779 -0.188977,-0.0378 H 68.107087 67.91811 67.729134 67.577953 l -0.151181,0.0378 -0.188977,0.03779 -0.151181,0.0378 -0.151181,0.0378 -0.151181,0.0378 -0.113386,0.07559 -0.151181,0.07559 -0.113386,0.07559 -0.151181,0.07559 -0.113386,0.07559 -0.113386,0.113385 -0.113385,0.113386 -0.07559,0.113386 -0.113386,0.113386 -0.07559,0.113386 -0.113386,0.151181 -0.07559,0.151181 -0.07559,0.151181 -0.07559,0.151181 -0.07559,0.151181 -0.0378,0.151181 -0.07559,0.188977 -0.0378,0.188976 -0.0378,0.188976 -0.0378,0.188977 -0.0378,0.226771 v 0.188977 0.226771 l -0.0378,0.226772 v 0.226772 0.226771 l 0.0378,0.226772 v 0.188976 0.226772 l 0.0378,0.188977 0.0378,0.226771 0.0378,0.188977 0.0378,0.151181 0.07559,0.188976 0.0378,0.151181 0.07559,0.188977 0.07559,0.151181 0.07559,0.151181 0.07559,0.151181 0.07559,0.113386 0.113386,0.113385 0.07559,0.151182 0.113386,0.113385 0.113385,0.07559 0.113386,0.113386 0.113386,0.07559 0.151181,0.113386 0.113386,0.0378 0.151181,0.07559 0.151181,0.07559 0.151181,0.0378 0.151181,0.0378 0.151182,0.0378 0.151181,0.0378 0.188976,0.0378 h 0.151181 0.188977 0.226771 0.226772 l 0.226771,-0.0378 0.188977,-0.07559 0.188976,-0.0378 0.188977,-0.07559 0.188976,-0.07559 0.151181,-0.113386 0.151181,-0.113386 0.188977,-0.151181 0.151181,-0.151181 0.151181,-0.151181 0.151181,-0.188977 0.151181,-0.188976 0.113386,-0.226772 0.151181,-0.264567 z"
       style="fill:#002b49;fill-opacity:1;fill-rule:nonzero;stroke:none"
       inkscape:connector-curvature="0" />
    <path
       id="path4494"
       d="m 74.72126,55.634646 h 2.192126 v 6.425197 l 0.113386,-0.226772 0.151181,-0.226772 0.151181,-0.188976 0.151181,-0.188977 0.151181,-0.188976 0.188976,-0.151181 0.188977,-0.113386 0.188976,-0.151181 0.226772,-0.113386 0.226772,-0.07559 0.226771,-0.07559 0.226772,-0.07559 0.264567,-0.0378 0.226771,-0.0378 0.264567,-0.03779 h 0.302363 0.188976 0.226772 l 0.188976,0.03779 0.188976,0.0378 0.188977,0.0378 0.188976,0.0378 0.151181,0.03779 0.188977,0.07559 0.151181,0.07559 0.151181,0.07559 0.151181,0.113386 0.151181,0.07559 0.151181,0.113386 0.113386,0.113386 0.113386,0.113386 0.151181,0.151181 0.07559,0.151181 0.113386,0.151181 0.113386,0.151181 0.07559,0.151181 0.07559,0.151181 0.07559,0.188977 0.07559,0.188976 0.07559,0.188976 0.0378,0.226772 0.07559,0.188976 v 0.226772 l 0.0378,0.226772 0.0378,0.226771 0.03779,0.226772 v 0.264567 0.226772 6.803149 H 81.524415 V 64.516534 64.176377 63.91181 l -0.07559,-0.302362 -0.0378,-0.226772 -0.07559,-0.226771 -0.07559,-0.226772 -0.0378,-0.07559 -0.07559,-0.07559 -0.0378,-0.113386 -0.07559,-0.07559 -0.0378,-0.07559 -0.113386,-0.07559 -0.0378,-0.0378 -0.07559,-0.07559 -0.113386,-0.07559 -0.07559,-0.03779 -0.07559,-0.0378 -0.113386,-0.0378 -0.07559,-0.03779 -0.113386,-0.0378 -0.113386,-0.0378 h -0.113386 l -0.226772,-0.0378 h -0.264566 -0.151182 -0.151181 l -0.151181,0.0378 h -0.113386 l -0.151181,0.0378 -0.113385,0.0378 -0.151182,0.03779 -0.113385,0.0378 -0.113386,0.07559 -0.113386,0.0378 -0.113386,0.07559 -0.07559,0.03779 -0.113386,0.07559 -0.07559,0.07559 -0.113386,0.07559 -0.07559,0.07559 -0.07559,0.113386 -0.07559,0.113386 -0.07559,0.07559 -0.07559,0.113386 -0.0378,0.113386 -0.07559,0.113386 -0.0378,0.113386 -0.07559,0.113386 -0.0378,0.151181 -0.0378,0.113385 -0.03779,0.151182 v 0.113385 l -0.0378,0.151182 v 0.151181 0.151181 0.151181 6.500787 H 74.72126 Z"
       style="fill:#002b49;fill-opacity:1;fill-rule:nonzero;stroke:none"
       inkscape:connector-curvature="0" />
    <path
       id="path4496"
       d="m 105.48661,67.048819 -0.11338,0.264567 -0.11339,0.302362 -0.11338,0.226772 -0.11339,0.264567 -0.11338,0.226771 -0.11339,0.226772 -0.11339,0.188976 -0.15118,0.226772 -0.11338,0.151181 -0.15118,0.188976 -0.15119,0.188977 -0.11338,0.151181 -0.18898,0.151181 -0.15118,0.151181 -0.15118,0.151181 -0.18898,0.113386 -0.18897,0.151181 -0.18898,0.151181 -0.22677,0.113386 -0.18898,0.113386 -0.22677,0.113386 -0.22677,0.07559 -0.22677,0.07559 -0.22677,0.07559 -0.26457,0.07559 -0.22677,0.07559 -0.26457,0.0378 -0.22677,0.0378 -0.30236,0.03779 h -0.26457 l -0.264567,0.0378 h -0.264567 -0.377953 l -0.377953,-0.0378 -0.377952,-0.03779 -0.340158,-0.07559 -0.340157,-0.07559 -0.340158,-0.07559 L 97.096063,70.979528 96.793701,70.866142 96.453543,70.714961 96.188976,70.56378 95.886614,70.374803 95.622047,70.223622 95.35748,69.99685 95.092913,69.807874 94.866142,69.581102 94.63937,69.316535 94.412598,69.089764 94.223622,68.787402 94.034646,68.522835 93.845669,68.220472 93.694488,67.91811 93.543307,67.615748 93.392126,67.275591 93.27874,66.935433 l -0.113386,-0.340157 -0.07559,-0.377953 -0.113386,-0.377953 -0.07559,-0.377953 -0.03779,-0.415748 -0.0378,-0.377952 -0.0378,-0.415748 V 63.83622 63.382677 l 0.0378,-0.377953 0.0378,-0.415748 0.03779,-0.377952 0.07559,-0.415748 0.113386,-0.340158 0.07559,-0.377953 0.113386,-0.377952 0.151181,-0.340158 0.113386,-0.302362 0.151181,-0.340158 0.188977,-0.302362 0.188976,-0.302362 0.188976,-0.264567 0.188977,-0.302362 0.226771,-0.226772 0.226772,-0.264567 0.226772,-0.226771 0.264567,-0.226772 0.264567,-0.188976 0.264566,-0.188977 0.264567,-0.188976 0.302363,-0.151181 0.302362,-0.151181 0.302362,-0.113386 0.340157,-0.113386 0.302363,-0.113386 0.340157,-0.07559 0.340158,-0.07559 0.377952,-0.0378 h 0.377953 l 0.340158,-0.03779 h 0.340157 l 0.302362,0.03779 0.30236,0.0378 0.30236,0.03779 0.30237,0.0378 0.26456,0.07559 0.26457,0.07559 0.30236,0.07559 0.22677,0.113386 0.26457,0.113386 0.22677,0.113386 0.22677,0.151181 0.22678,0.151181 0.22677,0.151181 0.18897,0.151181 0.22678,0.188977 0.22677,0.264566 0.22677,0.264567 0.11339,0.113386 0.11338,0.151181 0.0756,0.151181 0.11339,0.151182 0.18897,0.340157 0.18898,0.377953 0.18898,0.415748 0.18897,0.491338 -1.92756,0.718111 -0.15118,-0.377953 -0.15118,-0.377953 -0.11338,-0.188976 -0.0756,-0.151181 -0.0756,-0.188977 -0.11338,-0.151181 -0.0756,-0.151181 -0.11339,-0.113386 -0.0756,-0.151181 -0.11338,-0.113386 -0.11339,-0.151181 -0.11339,-0.113386 -0.11338,-0.07559 -0.11339,-0.113386 -0.11338,-0.07559 -0.11339,-0.113385 -0.11338,-0.07559 -0.15119,-0.07559 -0.11338,-0.0378 -0.15118,-0.07559 -0.15118,-0.07559 -0.11339,-0.0378 -0.18898,-0.0378 -0.15118,-0.0378 -0.15118,-0.03779 -0.15118,-0.0378 h -0.15118 -0.188977 l -0.151181,-0.0378 h -0.188976 l -0.264567,0.0378 h -0.264567 l -0.226772,0.0378 -0.264567,0.03779 -0.226771,0.0378 -0.226772,0.07559 -0.226771,0.07559 -0.188977,0.113386 -0.188976,0.113385 -0.226772,0.113386 -0.188976,0.113386 -0.151181,0.151181 -0.188977,0.151181 -0.151181,0.151181 -0.188976,0.188977 -0.151181,0.188976 -0.113386,0.188976 -0.151181,0.188977 -0.113386,0.226771 -0.113386,0.226772 -0.113386,0.226772 -0.07559,0.226771 -0.113386,0.264567 -0.07559,0.264567 -0.07559,0.302362 -0.07559,0.264567 -0.0378,0.302363 -0.0378,0.302362 -0.0378,0.302362 -0.0378,0.340158 v 0.302362 0.340157 0.340158 0.340157 l 0.0378,0.302362 0.0378,0.302363 0.0378,0.302362 0.0378,0.302362 0.07559,0.264567 0.07559,0.302362 0.07559,0.264567 0.113386,0.226772 0.07559,0.264567 0.113386,0.226771 0.113386,0.226772 0.113386,0.226772 0.151181,0.188976 0.151181,0.188976 0.151181,0.188977 0.151181,0.151181 0.151181,0.188976 0.188977,0.151181 0.188976,0.113386 0.188976,0.151181 0.188977,0.113386 0.188976,0.07559 0.226772,0.113385 0.226771,0.07559 0.226772,0.07559 0.226772,0.0378 0.264567,0.0378 0.226771,0.0378 0.264567,0.0378 h 0.264567 0.188977 0.188976 l 0.151186,-0.0378 h 0.18897 l 0.15118,-0.0378 0.18898,-0.0378 0.15118,-0.0378 0.15118,-0.0378 0.15118,-0.07559 0.15118,-0.0378 0.15118,-0.07559 0.15119,-0.07559 0.11338,-0.07559 0.11339,-0.07559 0.15118,-0.113386 0.11338,-0.07559 0.11339,-0.113386 0.11339,-0.113386 0.11338,-0.113386 0.11339,-0.113385 0.11338,-0.151182 0.0756,-0.151181 0.11339,-0.151181 0.11339,-0.151181 0.0756,-0.151181 0.0756,-0.188976 0.0756,-0.151181 0.11338,-0.188977 0.15118,-0.377953 0.11339,-0.453543 z"
       style="fill:#002b49;fill-opacity:1;fill-rule:nonzero;stroke:none"
       inkscape:connector-curvature="0" />
    <path
       id="path4498"
       d="m 112.59213,69.656693 h 0.15118 0.18897 l 0.15118,-0.0378 0.18898,-0.0378 0.11339,-0.0378 0.18897,-0.0378 0.15118,-0.0378 0.11339,-0.07559 0.15118,-0.07559 0.11339,-0.07559 0.15118,-0.07559 0.11338,-0.113385 0.11339,-0.07559 0.11339,-0.113386 0.11338,-0.113386 0.0756,-0.113386 0.11339,-0.151181 0.0756,-0.113385 0.11338,-0.151182 0.0378,-0.151181 0.0756,-0.151181 0.0756,-0.151181 0.0756,-0.188976 0.0378,-0.188977 0.0378,-0.188976 0.0756,-0.188976 0.0378,-0.188977 v -0.188976 l 0.0378,-0.226772 v -0.188976 l 0.0378,-0.226772 V 65.76378 65.537008 l -0.0378,-0.188977 V 65.12126 l -0.0378,-0.188977 v -0.226771 l -0.0378,-0.188977 -0.0756,-0.151181 -0.0378,-0.188976 -0.0378,-0.188976 -0.0756,-0.151182 -0.0756,-0.151181 -0.0378,-0.188976 -0.0756,-0.113386 -0.11338,-0.151181 -0.0756,-0.151181 -0.0756,-0.113386 -0.11339,-0.151181 -0.11338,-0.113386 -0.0756,-0.113386 -0.11339,-0.07559 -0.15118,-0.113386 -0.11339,-0.07559 -0.11338,-0.07559 -0.15118,-0.07559 -0.15119,-0.07559 -0.11338,-0.0378 -0.15118,-0.0378 -0.15118,-0.0378 -0.15118,-0.03779 -0.15119,-0.0378 h -0.18897 -0.15118 l -0.86929,-0.7937 0.86929,-0.944882 h 0.26456 l 0.26457,0.03779 0.30236,0.0378 0.22677,0.0378 0.26457,0.0378 0.26457,0.07559 0.26457,0.07559 0.22677,0.113386 0.22677,0.113386 0.22677,0.113385 0.22677,0.113386 0.18898,0.151181 0.22677,0.151181 0.18898,0.151182 0.18897,0.188976 0.15118,0.188976 0.18898,0.188977 0.15118,0.188976 0.15118,0.226772 0.15118,0.188976 0.11339,0.226772 0.11338,0.264567 0.11339,0.226771 0.11339,0.226772 0.11338,0.264567 0.0378,0.264567 0.0756,0.264567 0.0756,0.302362 0.0378,0.264567 0.0378,0.302362 v 0.302362 0.264567 0.340158 0.302362 l -0.0378,0.264567 -0.0378,0.302362 -0.0756,0.264567 -0.0756,0.302362 -0.0756,0.264567 -0.0756,0.264567 -0.11339,0.226772 -0.11339,0.264567 -0.11338,0.226771 -0.11339,0.226772 -0.15118,0.226772 -0.15118,0.226771 -0.15118,0.188977 -0.18898,0.188976 -0.15118,0.188976 -0.22677,0.151181 -0.18898,0.188977 -0.18897,0.151181 -0.22677,0.113386 -0.18898,0.151181 -0.26457,0.113386 -0.22677,0.113386 -0.22677,0.07559 -0.26457,0.113386 -0.26456,0.07559 -0.22678,0.0378 -0.30236,0.07559 h -0.26456 l -0.26457,0.0378 h -0.30236 l -0.8693,-0.944882 z"
       style="fill:#002b49;fill-opacity:1;fill-rule:nonzero;stroke:none"
       inkscape:connector-curvature="0" />
    <path
       id="path4500"
       d="m 112.59213,71.395276 h -0.26457 l -0.26457,-0.0378 h -0.30236 l -0.26457,-0.07559 -0.26456,-0.0378 -0.22678,-0.07559 -0.26456,-0.07559 -0.22677,-0.113385 -0.26457,-0.113386 -0.22677,-0.113386 -0.18898,-0.113386 -0.22677,-0.151181 -0.18898,-0.151181 -0.18897,-0.151181 -0.22678,-0.188977 -0.15118,-0.188976 -0.18897,-0.188976 -0.15118,-0.188977 -0.15118,-0.226771 -0.15119,-0.188977 -0.11338,-0.226771 -0.11339,-0.264567 -0.11338,-0.226772 -0.11339,-0.226772 -0.0756,-0.264567 -0.0756,-0.264567 -0.0756,-0.264566 -0.0756,-0.302363 -0.0378,-0.264567 -0.0378,-0.302362 V 66.103937 65.801575 65.499213 65.19685 l 0.0378,-0.302362 0.0378,-0.264567 0.0756,-0.302362 0.0756,-0.264567 0.0756,-0.264567 0.0756,-0.264567 0.11339,-0.264567 0.11338,-0.226771 0.11339,-0.226772 0.11338,-0.226772 0.15119,-0.226771 0.15118,-0.226772 0.15118,-0.188976 0.18897,-0.188977 0.18898,-0.188976 0.18898,-0.188976 0.18897,-0.151182 0.18898,-0.151181 0.22677,-0.151181 0.22677,-0.113386 0.22677,-0.113385 0.22678,-0.113386 0.26456,-0.113386 0.26457,-0.07559 0.22677,-0.07559 0.26457,-0.0378 0.30236,-0.0378 0.26457,-0.0378 0.26456,-0.03779 h 0.30237 l 0.60472,0.944882 -0.60472,0.7937 h -0.18898 -0.15118 l -0.18898,0.0378 -0.15118,0.03779 -0.15118,0.0378 -0.15118,0.0378 -0.15118,0.0378 -0.15118,0.07559 -0.15118,0.07559 -0.11339,0.07559 -0.15118,0.07559 -0.11339,0.07559 -0.11338,0.113385 -0.11339,0.113386 -0.11338,0.113386 -0.0756,0.113386 -0.11339,0.113386 -0.0756,0.151181 -0.11339,0.151181 -0.0756,0.151181 -0.0378,0.151181 -0.0756,0.151181 -0.0756,0.151181 -0.0378,0.188977 -0.0378,0.188976 -0.0756,0.188976 -0.0378,0.188977 v 0.226771 l -0.0378,0.188977 v 0.226771 l -0.0378,0.226772 v 0.226772 0.226771 l 0.0378,0.188977 v 0.226771 l 0.0378,0.188977 v 0.226772 l 0.0756,0.188976 0.0378,0.188976 0.0378,0.188977 0.0378,0.151181 0.0756,0.188976 0.0756,0.151181 0.0378,0.151181 0.0756,0.151181 0.11339,0.151182 0.0756,0.113385 0.11339,0.151181 0.0756,0.113386 0.11338,0.113386 0.11339,0.113386 0.11338,0.07559 0.11339,0.113385 0.11338,0.07559 0.15119,0.07559 0.11338,0.07559 0.15118,0.07559 0.15118,0.0378 0.15119,0.0378 0.15118,0.0378 0.15118,0.0378 0.15118,0.0378 h 0.15118 0.18898 l 0.60472,0.907087 z"
       style="fill:#002b49;fill-opacity:1;fill-rule:nonzero;stroke:none"
       inkscape:connector-curvature="0" />
    <path
       id="path4502"
       d="m 122.94803,62.022047 0.15118,-0.226771 0.11339,-0.226772 0.15118,-0.188976 0.15118,-0.188977 0.15118,-0.151181 0.18898,-0.151181 0.15118,-0.151181 0.18898,-0.113386 0.18897,-0.113386 0.18898,-0.07559 0.22677,-0.07559 0.22677,-0.07559 0.22677,-0.0378 0.22677,-0.0378 0.22678,-0.03779 h 0.22677 0.30236 l 0.22677,0.03779 0.26457,0.0378 0.22677,0.0378 0.22677,0.07559 0.18898,0.07559 0.18898,0.07559 0.18897,0.113386 0.18898,0.151181 0.18897,0.113386 0.15119,0.188976 0.15118,0.151181 0.15118,0.226772 0.11338,0.188976 0.15118,0.226772 0.11339,0.226772 0.15118,-0.226772 0.18898,-0.226772 0.15118,-0.188976 0.18898,-0.226772 0.18897,-0.151181 0.18898,-0.188976 0.22677,-0.113386 0.18898,-0.151181 0.18897,-0.113386 0.22677,-0.07559 0.22678,-0.07559 0.22677,-0.07559 0.26456,-0.0378 0.22678,-0.0378 0.26456,-0.03779 h 0.26457 0.18898 0.18897 l 0.18898,0.03779 0.18898,0.0378 0.18897,0.0378 0.15118,0.0378 0.18898,0.07559 0.15118,0.07559 0.15118,0.03779 0.15118,0.113386 0.15118,0.07559 0.15118,0.113385 0.11339,0.07559 0.15118,0.151181 0.11339,0.113386 0.11338,0.113386 0.11339,0.151181 0.0756,0.151181 0.11339,0.151181 0.0756,0.188976 0.0756,0.151182 0.0756,0.188976 0.0756,0.188976 0.0756,0.188977 0.0378,0.188976 0.0378,0.226772 0.0378,0.188976 0.0378,0.226772 0.0378,0.226771 v 0.226772 l 0.0378,0.264567 v 0.226772 6.803149 H 133.5685 V 64.47874 64.176378 l -0.0378,-0.302362 -0.0378,-0.264567 -0.0378,-0.226772 -0.0756,-0.226771 -0.0756,-0.226772 -0.0378,-0.07559 -0.0378,-0.113386 -0.0378,-0.07559 -0.0756,-0.07559 -0.0378,-0.07559 -0.0756,-0.07559 -0.0756,-0.07559 -0.0756,-0.0378 -0.0378,-0.07559 -0.11339,-0.03779 -0.0756,-0.0378 -0.0756,-0.0378 -0.0756,-0.03779 -0.11338,-0.0378 -0.0756,-0.0378 h -0.11338 l -0.22677,-0.0378 h -0.22677 -0.11339 -0.15118 l -0.11339,0.0378 h -0.11338 l -0.15118,0.0378 -0.11339,0.0378 -0.11339,0.03779 -0.11338,0.0378 -0.0756,0.07559 -0.11339,0.0378 -0.11338,0.07559 -0.0756,0.03779 -0.11339,0.07559 -0.0756,0.07559 -0.0756,0.07559 -0.0756,0.113385 -0.11339,0.07559 -0.0378,0.113386 -0.0756,0.07559 -0.0756,0.113386 -0.0378,0.113386 -0.0756,0.113386 -0.0378,0.113386 -0.0378,0.113386 -0.0378,0.151181 -0.0378,0.113385 -0.0378,0.151182 v 0.113385 l -0.0378,0.302363 -0.0378,0.302362 v 6.500787 H 127.1811 V 64.47874 64.176378 l -0.0378,-0.264567 -0.0378,-0.302362 -0.0378,-0.226772 -0.0756,-0.226771 -0.0756,-0.226772 -0.0378,-0.07559 -0.0378,-0.07559 -0.0756,-0.07559 -0.0378,-0.113386 -0.0756,-0.07559 -0.0378,-0.03779 -0.0756,-0.07559 -0.0756,-0.07559 -0.0756,-0.0378 -0.0756,-0.07559 -0.0756,-0.0378 -0.11339,-0.0378 -0.0756,-0.03779 -0.11338,-0.0378 h -0.0756 l -0.11339,-0.0378 -0.18897,-0.0378 h -0.22678 -0.15118 -0.11338 l -0.15118,0.0378 H 124.8 l -0.11339,0.0378 -0.11338,0.0378 -0.11339,0.03779 -0.11338,0.0378 -0.11339,0.07559 -0.11338,0.0378 -0.0756,0.07559 -0.11338,0.03779 -0.0756,0.07559 -0.0756,0.07559 -0.11339,0.07559 -0.0756,0.113385 -0.0756,0.07559 -0.0756,0.113386 -0.0378,0.07559 -0.0756,0.113386 -0.0756,0.113386 -0.0378,0.113386 -0.0378,0.113386 -0.0756,0.113386 v 0.151181 l -0.0378,0.113385 -0.0378,0.151182 -0.0378,0.113385 v 0.302363 l -0.0378,0.302362 v 6.500787 H 120.7937 V 60.359055 h 2.15433 z"
       style="fill:#002b49;fill-opacity:1;fill-rule:nonzero;stroke:none"
       inkscape:connector-curvature="0" />
    <path
       id="path4504"
       d="m 144.41575,69.656693 h 0.15118 0.18898 l 0.15118,-0.0378 0.15118,-0.0378 0.18897,-0.0378 h 0.11339 l 0.15118,-0.07559 0.15118,-0.0378 0.15118,-0.07559 0.11339,-0.07559 0.11338,-0.07559 0.11339,-0.07559 0.11339,-0.113386 0.11338,-0.07559 0.11339,-0.113386 0.0756,-0.113386 0.0756,-0.151181 0.0756,-0.113386 0.11339,-0.151181 0.0378,-0.151181 0.0756,-0.151181 0.0756,-0.151181 0.0378,-0.151181 0.0756,-0.188977 0.0378,-0.188976 0.0378,-0.188977 v -0.188976 l 0.0378,-0.188976 0.0378,-0.226772 V 66.292913 66.066142 65.83937 65.612598 65.385827 65.159055 l -0.0378,-0.226772 -0.0378,-0.188976 -0.0378,-0.188976 v -0.188977 l -0.0756,-0.188976 -0.0378,-0.188976 -0.0756,-0.151182 -0.0378,-0.188976 -0.0756,-0.151181 -0.0756,-0.151181 -0.0756,-0.151181 -0.0756,-0.113386 -0.11339,-0.151181 -0.0756,-0.113386 -0.11338,-0.113386 -0.0756,-0.113386 -0.11339,-0.113385 -0.11339,-0.07559 -0.15118,-0.07559 -0.11338,-0.07559 -0.11339,-0.07559 -0.15118,-0.07559 -0.15118,-0.0378 -0.11339,-0.0378 -0.15118,-0.0378 -0.18897,-0.03779 -0.15118,-0.0378 h -0.15119 -0.15118 l -0.30236,-0.869291 0.7937,-0.869291 h 0.26457 l 0.22677,0.03779 h 0.26457 l 0.22677,0.0378 0.22677,0.07559 0.22677,0.07559 0.22677,0.07559 0.22678,0.113386 0.18897,0.07559 0.18898,0.113386 0.18897,0.113386 0.18898,0.151181 0.18898,0.151181 0.15118,0.151181 0.18898,0.188977 0.15118,0.151181 0.15118,0.188976 0.11338,0.188977 0.15118,0.226771 0.11339,0.226772 0.11339,0.188976 0.0756,0.264567 0.11338,0.226772 0.0756,0.264567 0.0756,0.264567 0.0756,0.264567 0.0378,0.264567 0.0756,0.302362 0.0378,0.264567 v 0.302362 l 0.0378,0.302362 v 0.302362 0.340158 l -0.0378,0.302362 v 0.302362 l -0.0378,0.302362 -0.0378,0.302363 -0.0756,0.264566 -0.0756,0.264567 -0.0756,0.264567 -0.0756,0.264567 -0.0756,0.226772 -0.11338,0.264567 -0.11339,0.226772 -0.11339,0.226771 -0.15118,0.188977 -0.11338,0.188976 -0.15118,0.226772 -0.15118,0.151181 -0.15119,0.188976 -0.18897,0.151181 -0.15118,0.151181 -0.22678,0.113386 -0.18897,0.151181 -0.18898,0.113386 -0.18897,0.113386 -0.22678,0.07559 -0.22677,0.07559 -0.22677,0.07559 -0.22677,0.0378 -0.22677,0.07559 h -0.26457 l -0.22677,0.0378 h -0.26457 l -0.7937,-0.831496 z"
       style="fill:#002b49;fill-opacity:1;fill-rule:nonzero;stroke:none"
       inkscape:connector-curvature="0" />
    <path
       id="path4506"
       d="m 144.94488,71.395276 h -0.30236 l -0.26457,-0.0378 -0.26456,-0.03779 -0.26457,-0.0378 -0.26457,-0.07559 -0.22677,-0.07559 -0.22677,-0.113386 -0.22677,-0.113386 -0.22677,-0.113386 -0.18898,-0.151181 -0.18898,-0.151181 -0.22677,-0.151181 -0.15118,-0.226772 -0.18898,-0.188976 -0.15118,-0.188977 -0.15118,-0.226771 v 5.442519 h -2.15433 V 60.359055 h 2.15433 v 1.738583 l 0.15118,-0.226772 0.18898,-0.226772 0.18898,-0.188976 0.15118,-0.188976 0.18897,-0.188977 0.22677,-0.151181 0.18898,-0.151181 0.22677,-0.113386 0.22677,-0.113386 0.22678,-0.113385 0.22677,-0.07559 0.26456,-0.07559 0.22678,-0.0378 0.26456,-0.0378 0.30236,-0.03779 h 0.26457 l 0.30236,0.831496 -0.7937,0.907086 h -0.18897 -0.18898 l -0.15118,0.0378 -0.15118,0.03779 -0.18898,0.0378 -0.15118,0.0378 -0.15118,0.0378 -0.15118,0.07559 -0.11339,0.07559 -0.15118,0.07559 -0.11338,0.07559 -0.11339,0.07559 -0.11339,0.113385 -0.11338,0.113386 -0.11339,0.113386 -0.11338,0.113386 -0.11339,0.113386 -0.0756,0.151181 -0.0756,0.151181 -0.0756,0.151181 -0.0756,0.151181 -0.0756,0.151181 -0.0756,0.188977 -0.0378,0.188976 -0.0378,0.151181 -0.0378,0.188976 -0.0378,0.188977 -0.0378,0.226771 -0.0378,0.188977 v 0.226771 0.226772 0.226772 0.226771 0.226772 0.188976 l 0.0378,0.226772 0.0378,0.188977 0.0378,0.188976 0.0378,0.188976 0.0378,0.188977 0.0378,0.188976 0.0756,0.151181 0.0378,0.188977 0.11339,0.151181 0.0378,0.151181 0.11339,0.113386 0.0756,0.151181 0.11339,0.113385 0.0756,0.113386 0.11338,0.113386 0.11339,0.113386 0.11338,0.113386 0.11339,0.07559 0.15118,0.07559 0.11339,0.07559 0.11338,0.07559 0.15118,0.07559 0.15119,0.0378 0.15118,0.0378 0.15118,0.0378 0.18897,0.0378 0.15119,0.0378 h 0.18897 0.18898 l 0.83149,0.907087 z"
       style="fill:#002b49;fill-opacity:1;fill-rule:nonzero;stroke:none"
       inkscape:connector-curvature="0" />
    <path
       id="path4508"
       d="m 155.64094,69.732283 0.26457,-0.03779 0.30236,-0.0378 0.22678,-0.0378 0.26456,-0.07559 0.22677,-0.07559 0.22678,-0.113386 0.11338,-0.0378 0.0756,-0.07559 0.11339,-0.07559 0.0756,-0.07559 0.0756,-0.07559 0.11339,-0.0378 0.0756,-0.113386 0.0756,-0.07559 0.0378,-0.07559 0.0756,-0.113386 0.0378,-0.07559 0.0756,-0.113386 0.0378,-0.113386 0.0378,-0.07559 0.0378,-0.113385 v -0.113386 l 0.0378,-0.113386 V 67.76692 l 0.0378,-0.113386 v -0.113386 -1.360629 l -0.60472,-0.755906 0.60472,-0.71811 v -0.56692 -0.302363 l -0.0378,-0.226771 -0.0378,-0.264567 -0.0378,-0.188976 -0.0756,-0.226772 -0.0756,-0.188977 -0.0756,-0.07559 -0.0378,-0.07559 -0.0378,-0.07559 -0.0756,-0.07559 -0.0756,-0.07559 -0.0378,-0.0378 -0.11339,-0.07559 -0.0378,-0.03779 -0.0756,-0.07559 -0.11339,-0.03779 -0.0756,-0.0378 -0.11338,-0.0378 -0.18898,-0.0378 -0.22677,-0.03779 -0.22677,-0.0378 h -0.26457 -0.18898 -0.22677 l -0.18898,0.0378 -0.18897,0.03779 -0.18898,0.0378 -0.18897,0.0378 -0.18898,0.07559 -0.18898,0.07559 -0.18897,0.07559 -0.18898,0.07559 -0.18898,0.113386 -0.18897,0.113385 -0.18898,0.151181 -0.18898,0.113386 -0.18897,0.151181 -0.22677,0.188977 -1.09607,-1.398425 0.22678,-0.226772 0.26456,-0.188976 0.26457,-0.188977 0.22677,-0.151181 0.22677,-0.151181 0.26457,-0.113386 0.26457,-0.113386 0.26456,-0.113386 0.26457,-0.07559 0.26457,-0.113386 0.30236,-0.03779 0.26457,-0.07559 0.30236,-0.0378 0.30236,-0.03779 h 0.34016 0.30236 0.26457 0.22677 l 0.22677,0.03779 0.22677,0.0378 h 0.18898 l 0.22677,0.07559 0.18898,0.03779 0.18897,0.07559 0.18898,0.0378 0.18898,0.113386 0.15118,0.07559 0.15118,0.07559 0.18897,0.113386 0.11339,0.07559 0.15118,0.113386 0.15118,0.151181 0.11339,0.113386 0.11338,0.151181 0.11339,0.113386 0.11339,0.151181 0.0756,0.188976 0.0756,0.151182 0.11338,0.188976 0.0378,0.151181 0.0756,0.188976 0.0378,0.188977 0.0756,0.226771 v 0.188977 l 0.0378,0.226771 0.0378,0.226772 v 0.226772 0.226771 4.535433 l 0.0378,0.113386 v 0.113386 0.113386 l 0.0378,0.113386 0.0378,0.113386 0.0378,0.07559 0.0378,0.07559 0.0378,0.07559 0.0378,0.0378 0.0756,0.0378 0.0756,0.0378 0.0756,0.0378 0.11339,0.0378 0.0756,0.0378 h 0.11339 0.0756 0.11338 0.15118 v 1.587401 h -0.26456 l -0.18898,0.0378 h -0.18898 -0.11338 -0.22677 -0.22678 l -0.22677,-0.0378 -0.18897,-0.0378 -0.18898,-0.07559 -0.18898,-0.0378 -0.15118,-0.07559 -0.15118,-0.113386 -0.15118,-0.113386 -0.11339,-0.113386 -0.11338,-0.113385 -0.11339,-0.151182 -0.11338,-0.151181 -0.0756,-0.188976 -0.0756,-0.188976 -0.0756,-0.188977 -0.18898,0.226772 -0.15118,0.188976 -0.18898,0.188977 -0.18897,0.151181 -0.18898,0.151181 -0.18898,0.151181 -0.18897,0.151181 -0.22678,0.07559 -0.18897,0.113385 -0.22677,0.07559 -0.18898,0.07559 -0.22677,0.0378 -0.22677,0.07559 h -0.26457 l -0.22677,0.0378 h -0.26457 l -0.11338,-0.944882 z"
       style="fill:#002b49;fill-opacity:1;fill-rule:nonzero;stroke:none"
       inkscape:connector-curvature="0" />
    <path
       id="path4510"
       d="m 155.11181,71.395276 h -0.18898 -0.18897 l -0.18898,-0.0378 h -0.15118 l -0.18898,-0.03779 -0.15118,-0.0378 -0.15118,-0.0378 -0.18897,-0.07559 -0.15119,-0.0378 -0.15118,-0.07559 -0.11338,-0.07559 -0.15118,-0.07559 -0.11339,-0.07559 -0.15118,-0.07559 -0.11339,-0.113386 -0.11338,-0.07559 -0.11339,-0.113386 -0.0756,-0.113386 -0.11338,-0.113386 -0.11339,-0.113386 -0.0756,-0.113386 -0.0756,-0.151181 -0.0756,-0.113386 -0.0378,-0.151181 -0.0756,-0.151181 -0.0378,-0.151181 -0.0378,-0.151181 -0.0378,-0.151181 -0.0378,-0.151181 v -0.151181 l -0.0378,-0.151181 v -0.188977 -0.151181 -0.151181 l 0.0378,-0.113386 v -0.151181 l 0.0378,-0.113386 0.0378,-0.151181 0.0378,-0.113386 0.0378,-0.151181 0.0378,-0.113386 0.0756,-0.113385 0.0378,-0.113386 0.0756,-0.113386 0.0756,-0.113386 0.0378,-0.113386 0.11339,-0.113386 0.0756,-0.113385 0.0756,-0.07559 0.11338,-0.113386 0.0756,-0.07559 0.11339,-0.113386 0.22677,-0.151181 0.26457,-0.151181 0.26456,-0.151181 0.30237,-0.151182 0.30236,-0.113385 0.34016,-0.113386 0.37795,-0.07559 0.41575,-0.113386 0.37795,-0.07559 0.41575,-0.0378 0.45354,-0.0378 0.52914,-0.0378 0.56692,-0.0378 h 0.64252 l 0.60473,0.680315 -0.60473,0.793701 h -0.52913 l -0.52913,0.03779 -0.45355,0.0378 -0.41574,0.0378 -0.41575,0.07559 -0.34016,0.113386 -0.18898,0.03779 -0.15118,0.0378 -0.15118,0.07559 -0.15118,0.07559 -0.11339,0.0378 -0.11338,0.07559 -0.11339,0.07559 -0.11338,0.07559 -0.11339,0.07559 -0.0756,0.113386 -0.11339,0.07559 -0.0378,0.07559 -0.0756,0.113386 -0.0756,0.113385 -0.0378,0.113386 -0.0378,0.07559 -0.0378,0.113386 v 0.113386 l -0.0378,0.113385 v 0.151181 0.151182 l 0.0378,0.188976 0.0378,0.151181 0.0378,0.151181 0.0756,0.113386 0.0756,0.113386 0.11339,0.113386 0.0756,0.113385 0.15118,0.113386 0.11339,0.07559 0.15118,0.0378 0.15118,0.07559 0.18898,0.0378 0.15118,0.0378 0.18897,0.03779 h 0.22677 l 0.34016,0.831497 z"
       style="fill:#002b49;fill-opacity:1;fill-rule:nonzero;stroke:none"
       inkscape:connector-curvature="0" />
    <path
       id="path4512"
       d="m 164.25827,60.359055 h 2.15433 v 1.700788 l 0.15118,-0.226772 0.15118,-0.226772 0.11339,-0.188976 0.18897,-0.188977 0.15118,-0.188976 0.18898,-0.151181 0.18898,-0.113386 0.18897,-0.151181 0.18898,-0.113386 0.22677,-0.07559 0.22677,-0.07559 0.26457,-0.07559 0.22677,-0.0378 0.26457,-0.0378 0.26457,-0.03779 h 0.26456 0.22677 0.18898 l 0.22677,0.03779 0.18898,0.0378 0.15118,0.0378 0.18898,0.0378 0.18897,0.03779 0.18898,0.07559 0.15118,0.07559 0.15118,0.07559 0.15118,0.113386 0.11339,0.07559 0.15118,0.113386 0.15118,0.113386 0.11339,0.113386 0.11338,0.151181 0.11339,0.151181 0.11338,0.151181 0.0756,0.151181 0.0756,0.151181 0.11339,0.151181 0.0756,0.188977 0.0756,0.188976 0.0378,0.188976 0.0756,0.226772 0.0378,0.188976 0.0378,0.226772 0.0378,0.226772 0.0378,0.226771 v 0.226772 l 0.0378,0.264567 v 0.226772 6.803149 h -2.19212 v -6.689764 -0.340157 l -0.0378,-0.264567 -0.0378,-0.302362 -0.0378,-0.226772 -0.0756,-0.226771 -0.0756,-0.226772 -0.0756,-0.07559 -0.0378,-0.07559 -0.0756,-0.113386 -0.0378,-0.07559 -0.0756,-0.07559 -0.0756,-0.07559 -0.0756,-0.0378 -0.0756,-0.07559 -0.0756,-0.07559 -0.0756,-0.03779 -0.11339,-0.0378 -0.0756,-0.0378 -0.11339,-0.03779 -0.11338,-0.0378 -0.11339,-0.0378 h -0.11338 l -0.22678,-0.0378 h -0.26456 -0.15118 -0.11339 l -0.15118,0.0378 h -0.15118 l -0.11339,0.0378 -0.15118,0.0378 -0.11338,0.03779 -0.11339,0.0378 -0.11339,0.07559 -0.11338,0.0378 -0.11339,0.07559 -0.11338,0.03779 -0.0756,0.07559 -0.11339,0.07559 -0.0756,0.07559 -0.0756,0.07559 -0.11339,0.113386 -0.0756,0.113386 -0.0378,0.07559 -0.0756,0.113386 -0.0756,0.113386 -0.0378,0.113386 -0.0756,0.113386 -0.0378,0.113386 -0.0378,0.151181 -0.0378,0.113385 -0.0378,0.151182 v 0.113385 l -0.0378,0.151182 v 0.151181 l -0.0378,0.151181 v 0.151181 6.500787 h -2.15433 z"
       style="fill:#002b49;fill-opacity:1;fill-rule:nonzero;stroke:none"
       inkscape:connector-curvature="0" />
    <path
       id="path4514"
       d="m 180.62362,72.566929 -0.11338,0.302362 -0.11339,0.302363 -0.15118,0.264566 -0.15118,0.226772 -0.15118,0.264567 -0.18898,0.188976 -0.18898,0.188977 -0.18897,0.188976 -0.0756,0.0378 -0.11339,0.07559 -0.11338,0.07559 -0.11339,0.07559 -0.22677,0.07559 -0.22677,0.113385 -0.22678,0.07559 -0.26456,0.0378 -0.26457,0.0378 h -0.30236 -0.0378 -0.30236 l -0.30236,-0.0378 -0.26457,-0.0378 -0.26456,-0.07559 -0.26457,-0.113385 -0.26457,-0.113386 -0.22677,-0.113386 -0.26457,-0.151181 0.71811,-1.549606 0.15118,0.113385 0.15119,0.113386 0.18897,0.07559 0.15118,0.03779 0.18898,0.07559 0.15118,0.0378 h 0.18898 0.15118 0.15118 0.15118 l 0.11339,-0.0378 0.15118,-0.0378 0.11338,-0.0378 0.11339,-0.07559 0.11338,-0.0378 0.0756,-0.07559 0.0756,-0.113386 0.11338,-0.07559 0.0756,-0.113385 0.0756,-0.113386 0.0756,-0.151181 0.0756,-0.113386 0.0378,-0.151181 0.0378,-0.151181 0.34016,-1.020473 -4.11968,-10.696063 h 2.3433 l 2.83465,7.823622 2.64567,-7.823622 h 2.15433 v 0.0378 z"
       style="fill:#002b49;fill-opacity:1;fill-rule:nonzero;stroke:none"
       inkscape:connector-curvature="0" />
    <path
       id="path4516"
       d="M 12.245669,44.598425 V 36.737008 L 7.9748031,34.355906 3.703937,34.885039 v 9.713386 z"
       style="fill:#00ccff;fill-opacity:1;fill-rule:nonzero;stroke:none"
       inkscape:connector-curvature="0" />
    <path
       id="path4518"
       d="M 12.245669,29.933858 V 29.51811 29.102362 l 0.0378,-0.377953 0.07559,-0.377952 0.0378,-0.377953 0.07559,-0.377953 0.113386,-0.340157 0.07559,-0.340158 0.113386,-0.340157 0.113386,-0.302362 0.151181,-0.302363 0.151181,-0.302362 0.151181,-0.264567 0.188977,-0.264567 0.188976,-0.264567 0.188976,-0.226771 0.188977,-0.226772 0.226771,-0.226772 L 14.551181,24 l 0.226772,-0.188976 0.264567,-0.188977 0.264567,-0.151181 0.264567,-0.151181 0.264566,-0.113386 0.302363,-0.151181 0.264567,-0.07559 0.340157,-0.113386 0.302362,-0.07559 0.302362,-0.03779 0.340158,-0.0378 0.340157,-0.0378 h 0.340158 0.264567 0.264567 l 0.226771,0.0378 0.226772,0.0378 h 0.226772 l 0.188976,0.03779 0.226772,0.07559 0.188976,0.03779 0.226772,0.07559 0.188976,0.07559 0.226772,0.07559 0.188976,0.07559 0.226772,0.113386 0.188976,0.113386 0.226772,0.113386 0.226772,0.113386 L 24,15.987402 23.735433,15.83622 l -0.226772,-0.151181 -0.264567,-0.113385 -0.226771,-0.113386 -0.264567,-0.113386 -0.264567,-0.113386 -0.226772,-0.07559 -0.264567,-0.07559 -0.264567,-0.07559 -0.264566,-0.03779 -0.264567,-0.0378 -0.264567,-0.03779 -0.302363,-0.0378 -0.264566,-0.0378 h -0.302363 -0.302362 -0.302362 l -0.302362,0.0378 h -0.302362 l -0.302363,0.0378 -0.264567,0.03779 -0.264567,0.07559 -0.302362,0.07559 -0.264567,0.07559 -0.264567,0.07559 -0.264567,0.113386 -0.226771,0.113386 -0.264567,0.113386 -0.264567,0.113385 -0.226772,0.151181 -0.226771,0.151182 -0.226772,0.188976 -0.226772,0.151181 -0.226771,0.188976 -0.226772,0.188977 -0.226772,0.226771 -0.226771,0.226772 -0.188977,0.226772 -0.226771,0.264567 -0.188977,0.264567 -0.188976,0.264567 -0.226772,0.264566 -0.188976,0.302363 -0.188976,0.302362 -0.188977,0.302362 -0.188976,0.340158 -0.151181,0.340157 -0.188977,0.377953 V 15.420472 H 3.703937 v 19.464567 l 0.3023622,0.07559 0.3401575,0.07559 0.3779527,0.07559 0.3779528,0.113386 0.4535433,0.07559 0.4535433,0.113386 0.4913386,0.113386 0.5291339,0.113386 0.5291338,0.113386 0.6047244,0.151181 0.6047244,0.113386 0.6425197,0.151181 0.6803154,0.151181 0.680315,0.113386 0.71811,0.151181 0.755905,0.151181 z"
       style="fill:#002b49;fill-opacity:1;fill-rule:nonzero;stroke:none"
       inkscape:connector-curvature="0" />
    <path
       id="path4520"
       d="m 38.740157,45.20315 h 0.415749 0.415748 l 0.415748,-0.0378 0.377952,-0.0378 0.415748,-0.03779 0.377953,-0.0378 0.415748,-0.07559 0.377953,-0.03779 0.377953,-0.07559 0.377952,-0.07559 0.340158,-0.07559 0.377953,-0.113386 0.340157,-0.07559 0.377953,-0.113386 0.340157,-0.113386 0.340158,-0.151181 0.340157,-0.113386 0.302363,-0.151181 0.340157,-0.151181 0.302362,-0.151181 0.340158,-0.188977 0.302362,-0.151181 0.302362,-0.188976 0.302362,-0.188976 0.264567,-0.188977 0.302362,-0.188976 0.264567,-0.226772 0.302363,-0.226772 0.226771,-0.226771 0.264567,-0.226772 0.264567,-0.226772 0.264567,-0.264566 -11.451968,-1.549607 -11.905512,-0.529134 0.226771,0.340158 0.264567,0.340157 0.264567,0.340158 0.264567,0.340157 0.302362,0.302363 0.264567,0.302362 0.302362,0.302362 0.340158,0.302362 0.302362,0.264567 0.340158,0.264567 0.340157,0.264567 0.340158,0.226772 0.377952,0.264567 0.377953,0.226771 0.377953,0.226772 0.377953,0.188976 0.415748,0.226772 0.415748,0.151181 0.415748,0.188976 0.415748,0.151181 0.453543,0.151182 0.415748,0.151181 0.491339,0.113385 0.453543,0.113386 0.453543,0.113386 0.491339,0.07559 0.491338,0.07559 0.491339,0.07559 0.529134,0.03779 0.491338,0.0378 0.56693,0.0378 z"
       style="fill:#00ccff;fill-opacity:1;fill-rule:nonzero;stroke:none"
       inkscape:connector-curvature="0" />
    <path
       id="path4522"
       d="m 32.352756,26.948031 0.07559,-0.377952 0.113386,-0.340158 0.07559,-0.377952 0.07559,-0.340158 0.113386,-0.302362 0.113386,-0.340158 0.113386,-0.302362 0.113386,-0.264567 L 33.259843,24 l 0.151181,-0.226772 0.151181,-0.264567 0.113386,-0.226771 0.188976,-0.226772 0.151181,-0.226772 0.151181,-0.188976 0.188977,-0.188976 0.188976,-0.188977 0.188976,-0.151181 0.188977,-0.151181 0.226771,-0.151181 0.226772,-0.151181 0.226772,-0.113386 0.226771,-0.113386 0.226772,-0.07559 0.226772,-0.07559 0.264566,-0.07559 0.264567,-0.07559 0.264567,-0.0378 0.302363,-0.03779 0.302362,-0.0378 h 0.302362 0.302362 l 1.398425,-3.137008 -1.36063,-3.174803 h -0.7937 l -0.793701,0.07559 -0.755906,0.07559 -0.755905,0.151181 -0.755906,0.151182 -0.71811,0.188976 -0.680315,0.226772 -0.680315,0.264566 -0.680315,0.302363 -0.642519,0.340157 -0.604725,0.340158 -0.604724,0.377952 -0.566929,0.415748 -0.529134,0.453544 -0.529134,0.491338 -0.491339,0.491339 -0.491338,0.529134 -0.453544,0.566929 -0.415748,0.566929 -0.377952,0.604724 -0.377953,0.64252 -0.340158,0.64252 -0.302362,0.680315 -0.302362,0.680315 -0.226772,0.71811 -0.226771,0.755905 -0.188977,0.755906 -0.151181,0.755905 -0.113386,0.831497 -0.113385,0.7937 -0.0378,0.831496 v 0.869292 0.604724 l 0.0378,0.604725 0.0378,0.566929 0.07559,0.604724 0.07559,0.604725 0.113386,0.566929 0.151181,0.566929 0.151181,0.566929 0.151181,0.529134 0.188976,0.529134 0.226772,0.529133 0.226772,0.529134 0.264567,0.491339 0.226771,0.491339 0.302363,0.491338 0.302362,0.453543 1.285039,0.188977 1.285039,0.151181 1.322835,0.151181 1.36063,0.188976 1.398425,0.151181 1.398425,0.151182 1.436221,0.113385 1.43622,0.151182 1.474016,0.113385 1.511811,0.151181 1.511811,0.113386 1.549606,0.113386 1.549607,0.07559 1.587401,0.113385 1.625197,0.07559 1.625197,0.07559 0.264567,-0.264567 0.264567,-0.302363 0.226772,-0.302362 0.264566,-0.302362 0.226772,-0.302362 0.226772,-0.340158 0.226771,-0.302362 0.226772,-0.340157 -6.651968,-3.288189 -0.264567,0.453543 -0.302363,0.415748 -0.151181,0.188976 -0.151181,0.188977 -0.151181,0.188976 -0.151181,0.151181 -0.151181,0.151181 -0.188976,0.151181 -0.151182,0.151182 -0.151181,0.151181 -0.188976,0.113385 -0.151181,0.151182 -0.188977,0.113385 -0.151181,0.113386 -0.188976,0.07559 -0.188976,0.113386 -0.188977,0.07559 -0.188976,0.07559 -0.188977,0.07559 -0.226771,0.0378 -0.188977,0.07559 -0.226771,0.0378 -0.188977,0.0378 -0.226771,0.07559 h -0.226772 l -0.226772,0.0378 -0.264566,0.0378 H 39.344882 39.11811 38.853543 38.248819 l -0.566929,-0.07559 -0.491339,-0.07559 -0.491338,-0.113386 -0.453544,-0.151181 -0.453543,-0.151181 -0.377953,-0.188977 -0.377953,-0.226771 -0.302362,-0.226772 -0.302362,-0.264567 -0.302362,-0.264567 -0.264567,-0.302362 -0.226772,-0.264567 -0.188976,-0.302362 -0.188976,-0.302362 -0.188977,-0.302363 -0.151181,-0.302362 -0.113386,-0.302362 -0.113386,-0.302362 -0.113385,-0.302362 -0.07559,-0.264567 -0.07559,-0.302363 -0.03779,-0.264567 -0.07559,-0.226771 -0.0378,-0.453544 -0.07559,-0.340157 V 32.277165 32.16378 l 1.43622,-2.456693 z"
       style="fill:#002b49;fill-opacity:1;fill-rule:nonzero;stroke:none"
       inkscape:connector-curvature="0" />
    <path
       id="path4524"
       d="m 32.201575,32.16378 h 19.804724 v -2.305512 l -0.03779,-0.869292 -0.0378,-0.869291 -0.07559,-0.831496 L 51.741733,26.494488 51.628347,25.700787 51.477166,24.944882 51.28819,24.226772 51.061418,23.508661 50.834647,22.828346 50.532284,22.148031 50.267718,21.505512 49.92756,20.900787 49.587403,20.333858 49.20945,19.766929 48.793702,19.237795 48.377954,18.708661 47.92441,18.255118 47.433072,17.801575 46.941733,17.385827 46.412599,17.007874 45.84567,16.629921 45.278741,16.327559 44.674017,16.025197 44.069292,15.722835 43.426773,15.496063 42.746458,15.307087 42.066143,15.11811 l -0.718111,-0.151181 -0.71811,-0.113386 -0.71811,-0.07559 -0.793701,-0.07559 H 38.32441 l -1.474015,3.325984 1.43622,2.985827 h 0.302362 0.302363 l 0.302362,0.0378 0.264567,0.03779 0.302362,0.0378 0.226772,0.07559 0.264567,0.07559 0.226771,0.07559 0.264567,0.07559 0.188976,0.113386 0.226772,0.113386 0.188976,0.113386 0.226772,0.151181 0.188977,0.151181 0.151181,0.151181 0.188976,0.188976 0.151181,0.188977 0.151181,0.188976 0.151181,0.226772 0.113386,0.226771 0.151181,0.226772 0.113386,0.264567 L 43.048819,24 l 0.07559,0.264567 0.113386,0.302362 0.07559,0.302362 0.07559,0.302363 0.07559,0.340157 0.07559,0.340158 0.0378,0.377952 0.07559,0.340158 0.0378,0.377952 H 32.352756 l -1.549606,2.64567 z"
       style="fill:#002b49;fill-opacity:1;fill-rule:nonzero;stroke:none"
       inkscape:connector-curvature="0" />
    <path
       id="path4526"
       d="m 72,44.598425 h 9.977953 l -3.061418,-4.573228 -5.064566,-0.831496 -4.119686,1.738582 z"
       style="fill:#a3bac8;fill-opacity:1;fill-rule:nonzero;stroke:none"
       inkscape:connector-curvature="0" />
    <path
       id="path4528"
       d="m 60.132283,44.598425 2.116536,-3.325984 -4.195276,-0.982677 -4.459842,0.944882 -2.305512,3.363779 z"
       style="fill:#5a7c91;fill-opacity:1;fill-rule:nonzero;stroke:none"
       inkscape:connector-curvature="0" />
    <path
       id="path4530"
       d="m 62.248819,41.272441 3.892913,-6.047244 3.590551,5.707086 0.56693,-0.03779 0.566929,-0.0378 0.566929,-0.0378 0.604724,-0.0378 0.566929,-0.07559 0.56693,-0.03779 0.566929,-0.07559 0.604724,-0.0378 0.566929,-0.07559 0.566929,-0.0378 0.566929,-0.07559 0.56693,-0.07559 0.566929,-0.03779 0.604724,-0.07559 0.566929,-0.07559 0.566929,-0.07559 -7.407874,-10.998425 9.486615,-13.6063 h -8.8063 l -5.177952,8.314961 -5.215748,-8.314961 h -9.826772 l 9.486614,14.286615 -7.861417,11.527559 h 0.793701 l 0.7937,0.0378 h 0.793701 0.793701 l 0.793701,0.0378 h 0.831496 0.793701 0.831496 0.264567 0.264566 0.302363 0.264567 l 0.302362,-0.0378 h 0.264567 0.302362 z"
       style="fill:#002b49;fill-opacity:1;fill-rule:nonzero;stroke:none"
       inkscape:connector-curvature="0" />
    <path
       id="path4532"
       d="m 93.316535,44.598425 v -6.87874 l -4.724409,-0.529134 -3.817323,2.00315 v 5.404724 z"
       style="fill:#a3bac8;fill-opacity:1;fill-rule:nonzero;stroke:none"
       inkscape:connector-curvature="0" />
    <path
       id="path4534"
       d="M 93.316535,29.933858 V 29.51811 l 0.0378,-0.415748 0.0378,-0.377953 0.03779,-0.377952 0.0378,-0.377953 0.07559,-0.377953 0.113386,-0.340157 0.113386,-0.340158 0.07559,-0.340157 0.151181,-0.302362 0.113386,-0.302363 0.151181,-0.302362 0.151181,-0.264567 0.188977,-0.264567 0.188976,-0.264567 0.188977,-0.226771 0.226771,-0.226772 0.188977,-0.226772 L 95.622047,24 l 0.264567,-0.188976 0.226772,-0.188977 0.264567,-0.151181 0.264567,-0.151181 0.264567,-0.113386 0.302362,-0.151181 0.264567,-0.07559 0.340157,-0.113386 0.302362,-0.07559 0.302363,-0.03779 0.340157,-0.0378 0.340158,-0.0378 h 0.340157 0.264567 0.264567 l 0.226776,0.0378 0.22677,0.0378 h 0.22677 l 0.18898,0.03779 0.22677,0.07559 0.18897,0.03779 0.22677,0.07559 0.18898,0.07559 0.22677,0.07559 0.18898,0.07559 0.22677,0.113386 0.18898,0.113386 0.22677,0.113386 0.22677,0.113386 2.11654,-7.672441 -0.22678,-0.151182 -0.26456,-0.151181 -0.26457,-0.113385 -0.22677,-0.113386 -0.26457,-0.113386 -0.26456,-0.113386 -0.22678,-0.07559 -0.26456,-0.07559 -0.26457,-0.07559 -0.26457,-0.03779 -0.26456,-0.0378 -0.26457,-0.03779 -0.30236,-0.0378 -0.26457,-0.0378 h -0.30236 -0.30236 -0.30237 l -0.30236,0.0378 h -0.302361 l -0.302363,0.0378 -0.264566,0.03779 -0.264567,0.07559 -0.264567,0.07559 -0.302363,0.07559 -0.264566,0.07559 -0.226772,0.113386 -0.264567,0.113386 -0.264567,0.113386 -0.264567,0.113385 -0.226772,0.151181 -0.226771,0.151182 -0.226772,0.188976 -0.226772,0.151181 -0.226771,0.188976 -0.226772,0.188977 -0.226771,0.226771 -0.226772,0.226772 -0.188977,0.226772 -0.226771,0.264567 -0.188977,0.264567 -0.188976,0.264567 -0.226772,0.264566 -0.188976,0.302363 -0.188976,0.302362 -0.188977,0.302362 -0.188976,0.340158 -0.151181,0.340157 -0.188977,0.377953 v -4.988977 h -8.541732 v 23.773229 l 0.529134,-0.07559 0.529134,-0.07559 0.566929,-0.07559 0.529134,-0.113386 0.529134,-0.07559 0.529134,-0.07559 0.529133,-0.113386 0.529134,-0.07559 0.529134,-0.113386 0.566929,-0.07559 0.529134,-0.113385 0.529134,-0.07559 0.529134,-0.113386 0.529134,-0.07559 0.529134,-0.113386 0.529133,-0.113386 z"
       style="fill:#002b49;fill-opacity:1;fill-rule:nonzero;stroke:none"
       inkscape:connector-curvature="0" />
    <path
       id="path4536"
       d="m 134.32441,29.858268 v -0.302362 -0.302363 l -0.0378,-0.302362 v -0.302362 l -4.27086,-0.529134 -4.38425,2.456693 v 0.415748 l -0.0378,0.453543 -0.0378,0.264567 -0.0378,0.302362 -0.0378,0.264567 -0.0378,0.302363 -0.0378,0.302362 -0.0756,0.302362 -0.0756,0.340157 -0.0756,0.302363 -0.11338,0.340157 -0.11339,0.302362 -0.11338,0.340158 -0.15119,0.302362 -0.15118,0.302362 -0.15118,0.340158 -0.18897,0.302362 -0.18898,0.264567 -0.22677,0.302362 -0.22677,0.264567 -0.26457,0.226772 -0.30236,0.264567 -0.26457,0.226771 -0.34016,0.188977 -0.34016,0.188976 -0.34015,0.151181 -0.37796,0.151181 -0.41574,0.07559 -0.45355,0.113386 -0.45354,0.03779 -0.60472,3.325984 1.32283,3.288189 0.75591,-0.07559 0.71811,-0.07559 0.71811,-0.151181 0.68031,-0.188977 0.71811,-0.188976 0.64252,-0.226772 0.64252,-0.226771 0.64252,-0.302362 0.60472,-0.302363 0.60473,-0.340157 0.56693,-0.377953 0.52913,-0.377953 0.56693,-0.415748 0.49134,-0.453543 0.49134,-0.453543 0.45354,-0.491339 0.45355,-0.529134 0.37795,-0.529134 0.41575,-0.529133 0.34015,-0.604725 0.34016,-0.604724 0.34016,-0.604725 0.26457,-0.642519 0.26456,-0.680315 0.22677,-0.64252 0.18898,-0.71811 0.18898,-0.71811 0.11338,-0.718111 0.11339,-0.755905 0.11338,-0.755906 0.0378,-0.7937 z"
       style="fill:#5a7c91;fill-opacity:1;fill-rule:nonzero;stroke:none"
       inkscape:connector-curvature="0" />
    <path
       id="path4538"
       d="m 119.39528,38.551181 h -0.34016 l -0.34016,-0.0378 -0.34016,-0.03779 -0.30236,-0.0378 -0.30236,-0.07559 -0.30236,-0.07559 -0.26457,-0.07559 -0.26457,-0.113386 -0.26456,-0.113386 -0.22678,-0.151181 -0.22677,-0.113386 -0.22677,-0.151181 -0.18898,-0.151181 -0.18897,-0.188977 -0.18898,-0.151181 -0.18897,-0.188976 -0.15119,-0.188976 -0.15118,-0.188977 -0.15118,-0.226771 -0.15118,-0.188977 -0.11338,-0.226771 -0.15119,-0.226772 -0.11338,-0.226772 -0.0756,-0.188976 -0.11339,-0.226772 -0.11338,-0.226771 -0.0756,-0.226772 -0.0756,-0.226772 -0.15118,-0.453543 -0.11338,-0.453543 h -4.45984 l -3.85512,1.889763 0.22677,0.755906 0.30236,0.71811 0.30236,0.680315 0.34016,0.64252 0.37795,0.604724 0.37796,0.604725 0.41574,0.529133 0.41575,0.529134 0.45355,0.453544 0.49133,0.453543 0.49134,0.453543 0.49134,0.377953 0.49134,0.340157 0.52913,0.340158 0.52914,0.302362 0.52913,0.302362 0.52914,0.226772 0.52913,0.226772 0.52913,0.226771 0.52914,0.188977 0.52913,0.151181 0.49134,0.188976 0.49134,0.113386 0.49134,0.113386 0.49134,0.07559 0.45354,0.07559 0.45354,0.07559 0.41575,0.07559 0.41575,0.0378 h 0.37795 l 0.34016,0.0378 h 0.34016 0.34015 l 0.34016,-0.0378 h 0.30236 l 0.34016,-0.0378 L 120,38.513386 l -0.15118,0.0378 h -0.15118 -0.15118 z"
       style="fill:#00ccff;fill-opacity:1;fill-rule:nonzero;stroke:none"
       inkscape:connector-curvature="0" />
    <path
       id="path4540"
       d="M 113.19685,29.971654 V 29.44252 l 0.0378,-0.491339 v -0.491338 l 0.0378,-0.491339 0.0756,-0.453543 0.0756,-0.453544 0.0756,-0.415748 0.11339,-0.415748 0.11338,-0.377952 0.11339,-0.415749 0.11339,-0.340157 0.15118,-0.340157 0.15118,-0.340158 0.15118,-0.302362 0.18898,-0.302362 0.18897,-0.264567 0.22677,-0.302363 0.22678,-0.226771 0.22677,-0.226772 0.22677,-0.226771 0.26457,-0.188977 0.26456,-0.188976 0.26457,-0.151181 0.30236,-0.151181 0.30236,-0.113386 0.34016,-0.113386 0.30236,-0.113386 0.34016,-0.07559 0.34016,-0.07559 h 0.37795 l 0.37795,-0.0378 h 0.37796 0.37795 l 0.34016,0.0378 0.34015,0.03779 0.34016,0.0378 0.30236,0.07559 0.30237,0.113386 0.30236,0.113386 0.30236,0.113386 0.26457,0.188976 0.26456,0.151181 0.26457,0.188976 0.26457,0.188977 0.22677,0.226771 0.22677,0.226772 0.18898,0.226772 0.18897,0.264567 0.18898,0.302362 0.18898,0.302362 0.15118,0.302362 0.15118,0.302363 0.15118,0.377952 0.15118,0.340158 0.11339,0.377953 0.11338,0.377952 0.0756,0.415748 0.0756,0.415748 0.0756,0.453544 0.0378,0.453543 0.0756,0.453543 v 0.491339 l 0.0378,0.491338 v 0.529134 0.07559 0.151181 0.188976 0.226772 l 0.52913,-0.113386 0.56693,-0.151181 0.56693,-0.113386 0.52913,-0.113386 0.52914,-0.151181 0.56693,-0.113386 0.52913,-0.113385 0.52913,-0.113386 0.56693,-0.113386 0.52914,-0.151181 0.52913,-0.113386 0.52913,-0.113386 0.56693,-0.113386 0.52914,-0.113385 0.52913,-0.113386 0.52913,-0.113386 -0.0756,-0.604725 -0.0756,-0.604724 -0.0756,-0.64252 -0.15118,-0.604724 -0.15118,-0.604724 -0.18898,-0.604725 -0.18897,-0.64252 -0.22677,-0.566929 -0.22678,-0.604724 -0.30236,-0.604724 -0.30236,-0.604725 -0.30236,-0.566929 -0.37796,-0.566929 -0.37795,-0.529134 -0.37795,-0.529134 -0.45354,-0.491338 -0.45355,-0.491339 -0.49134,-0.491339 -0.52913,-0.453543 -0.52913,-0.415748 -0.56693,-0.415748 -0.60473,-0.377953 -0.64252,-0.340157 -0.64252,-0.302362 -0.68031,-0.302363 -0.71811,-0.226771 -0.75591,-0.226772 -0.7937,-0.188976 -0.7937,-0.151181 -0.83149,-0.113386 -0.8693,-0.0378 -0.90708,-0.03779 h -0.8315 l -0.83149,0.07559 -0.79371,0.07559 -0.7559,0.151181 -0.75591,0.151182 -0.7559,0.188976 -0.71811,0.226772 -0.68032,0.264566 -0.68031,0.302363 -0.68032,0.302362 -0.64252,0.377953 -0.60472,0.377952 -0.56693,0.415748 -0.56693,0.415748 -0.52913,0.491339 -0.52914,0.491339 -0.49134,0.529133 -0.45354,0.56693 -0.41575,0.566929 -0.41575,0.604724 -0.37795,0.604725 -0.34016,0.642519 -0.34015,0.680315 -0.26457,0.680315 -0.26457,0.71811 -0.22677,0.755906 -0.18897,0.755905 -0.15119,0.755906 -0.11338,0.793701 -0.0756,0.793701 -0.0756,0.831496 v 0.869291 0.340157 0.377953 0.340158 l 0.0378,0.340157 0.0378,0.340158 v 0.340157 l 0.0756,0.340158 0.0378,0.302362 0.0378,0.340157 0.0756,0.302362 0.0378,0.302363 0.0756,0.302362 0.11338,0.604724 0.18898,0.566929 0.49134,-0.113385 0.56692,-0.151182 0.49134,-0.113385 0.52914,-0.113386 0.52913,-0.113386 0.52914,-0.113386 0.52913,-0.113386 0.49134,-0.113385 0.52913,-0.151182 0.52914,-0.113385 0.52913,-0.113386 0.52913,-0.113386 0.49134,-0.113386 0.52914,-0.113386 0.52913,-0.113386 0.49134,-0.113385 -0.0378,-0.302363 -0.0756,-0.302362 -0.0378,-0.302362 -0.0378,-0.264567 -0.0756,-0.529134 -0.0378,-0.453543 -0.0378,-0.415748 V 30.462992 30.16063 Z"
       style="fill:#002b49;fill-opacity:1;fill-rule:nonzero;stroke:none"
       inkscape:connector-curvature="0" />
    <path
       id="path4542"
       d="m 148.38425,45.20315 h 0.49134 l 0.52913,-0.0378 0.45355,-0.0378 0.49134,-0.07559 0.45354,-0.07559 0.49134,-0.113386 0.41575,-0.113386 0.45354,-0.113386 0.41575,-0.151181 0.41575,-0.151181 0.41574,-0.188976 0.41575,-0.226772 0.37795,-0.226771 0.37796,-0.226772 0.37795,-0.264567 0.37795,-0.302362 -2.07874,-5.669292 -0.37795,0.226772 -0.37795,0.151181 -0.18898,0.113386 -0.18898,0.07559 -0.15118,0.03779 -0.18897,0.07559 -0.18898,0.0378 -0.15118,0.03779 -0.18898,0.0378 -0.18897,0.0378 -0.18898,0.0378 h -0.18898 l -0.18897,0.03779 h -0.18898 -0.15118 l -0.15118,-0.03779 h -0.15118 l -0.11339,-0.0378 h -0.15118 l -0.11339,-0.0378 -0.11338,-0.0378 -0.11339,-0.07559 -0.11338,-0.0378 -0.11339,-0.0378 -0.11338,-0.07559 -0.11339,-0.07559 -0.0756,-0.07559 -0.0756,-0.07559 -0.11339,-0.07559 -0.0756,-0.113386 -0.0378,-0.113386 -0.0756,-0.113385 -0.0756,-0.113386 -0.0756,-0.113386 -0.0378,-0.113386 -0.0378,-0.113386 -0.0378,-0.151181 -0.0756,-0.151181 -0.0378,-0.151181 v -0.151181 l -0.0378,-0.188976 v -0.151182 l -0.0378,-0.377952 -0.0378,-0.377953 v -8.88189 l -4.30866,-0.680315 -4.19528,2.192126 v 8.390551 0.566929 l 0.0378,0.529134 0.0378,0.491339 0.0756,0.491339 0.0756,0.491338 0.11339,0.453543 0.11338,0.453544 0.11339,0.453543 0.18898,0.415748 0.15118,0.377953 0.22677,0.415748 0.18898,0.377953 0.22677,0.340157 0.26456,0.340158 0.26457,0.302362 0.26457,0.302362 0.30236,0.302362 0.30236,0.264567 0.34016,0.264567 0.34016,0.226772 0.37795,0.188976 0.37795,0.226772 0.37796,0.151181 0.41574,0.188976 0.45355,0.113386 0.41575,0.151181 0.45354,0.113386 0.49134,0.07559 0.49134,0.0378 0.49133,0.07559 0.52914,0.0378 z"
       style="fill:#5a7c91;fill-opacity:1;fill-rule:nonzero;stroke:none"
       inkscape:connector-curvature="0" />
    <path
       id="path4544"
       d="m 147.85512,22.072441 h 6.16063 v -6.651969 h -6.16063 V 6.6141732 l -8.50394,2.9480315 v 5.8582673 h -4.04409 v 6.651969 h 4.04409 v 5.51811 l 0.52913,-0.113386 0.52914,-0.113385 0.56693,-0.07559 0.52913,-0.113386 0.52914,-0.113386 0.52913,-0.07559 0.56693,-0.113386 0.52913,-0.07559 0.52914,-0.113385 0.52913,-0.113386 0.52913,-0.07559 0.52914,-0.07559 0.52913,-0.113386 0.52914,-0.07559 0.52913,-0.07559 0.49134,-0.07559 z"
       style="fill:#002b49;fill-opacity:1;fill-rule:nonzero;stroke:none"
       inkscape:connector-curvature="0" />
    <path
       id="path4546"
       d="m 176.50394,26.872441 v 17.725984 h 8.54173 V 27.061417 l -4.30866,-2.418897 -4.30866,0.907086 0.0378,0.302363 0.0378,0.340157 v 0.302362 z"
       style="fill:#df0024;fill-opacity:1;fill-rule:nonzero;stroke:none"
       inkscape:connector-curvature="0" />
    <path
       id="path4548"
       d="m 166.82835,44.598425 v -17.19685 -0.377953 -0.377953 l 0.0378,-0.377952 0.0378,-0.340158 0.0756,-0.340157 0.0756,-0.302363 0.0756,-0.302362 0.0756,-0.302362 -4.61102,-1.171654 -4.30867,1.36063 v 19.729134 z"
       style="fill:#00ccff;fill-opacity:1;fill-rule:nonzero;stroke:none"
       inkscape:connector-curvature="0" />
    <path
       id="path4550"
       d="m 167.2063,24.680315 0.11339,-0.264567 0.11338,-0.302362 0.15118,-0.264567 0.11339,-0.226772 0.15118,-0.226771 0.18898,-0.226772 0.15118,-0.188976 0.18897,-0.188977 0.15118,-0.188976 0.18898,-0.151181 0.18898,-0.151181 0.18897,-0.113386 0.18898,-0.113386 0.18898,-0.113386 0.18897,-0.113386 0.18898,-0.07559 0.18897,-0.07559 0.18898,-0.07559 0.18898,-0.0378 0.15118,-0.0378 0.37795,-0.07559 0.30236,-0.07559 0.30237,-0.0378 h 0.22677 0.22677 0.15118 l 0.22677,-0.0378 0.45355,0.0378 h 0.15118 l 0.15118,0.0378 h 0.15118 l 0.18897,0.03779 0.15119,0.0378 0.18897,0.07559 0.18898,0.07559 0.15118,0.07559 0.18898,0.07559 0.18897,0.113386 0.18898,0.151181 0.18898,0.113385 0.15118,0.151182 0.18897,0.188976 0.15118,0.226772 0.15119,0.188976 0.15118,0.264567 0.15118,0.264567 0.11338,0.264567 0.11339,0.340157 0.11338,0.340158 0.0756,0.340157 0.11338,0.415748 0.0378,0.415748 0.56693,0.07559 0.52913,0.07559 0.56693,0.07559 0.52913,0.113386 0.52914,0.07559 0.56693,0.07559 0.52913,0.113386 0.52913,0.07559 0.52914,0.113386 0.56693,0.113386 0.52913,0.07559 0.52913,0.113386 0.52914,0.113386 0.52913,0.07559 0.52914,0.113385 0.52913,0.113386 v -0.491338 -0.64252 l -0.0378,-0.64252 -0.0378,-0.604724 -0.0756,-0.604724 -0.0756,-0.56693 -0.0756,-0.566929 -0.0756,-0.566929 -0.11339,-0.566929 -0.15118,-0.529134 -0.15118,-0.491338 -0.15118,-0.491339 -0.18898,-0.491339 -0.18898,-0.453543 -0.22677,-0.453543 -0.22677,-0.415748 -0.26457,-0.415748 -0.26456,-0.377953 -0.30236,-0.377953 -0.34016,-0.340157 -0.34016,-0.302362 -0.34016,-0.302363 -0.37795,-0.302362 -0.41575,-0.226772 -0.45354,-0.264566 -0.45354,-0.188977 -0.45355,-0.151181 -0.49134,-0.188976 -0.56693,-0.113386 -0.52913,-0.113386 -0.60472,-0.03779 -0.60473,-0.07559 h -0.60472 -0.37796 l -0.41574,0.03779 h -0.34016 l -0.37795,0.0378 -0.34016,0.03779 -0.37795,0.07559 -0.34016,0.07559 -0.34016,0.07559 -0.30236,0.07559 -0.34016,0.113386 -0.30236,0.07559 -0.34016,0.151181 -0.26457,0.113386 -0.30236,0.113385 -0.30236,0.151181 -0.26457,0.188977 -0.30236,0.151181 -0.26457,0.188976 -0.26456,0.188977 -0.26457,0.188976 -0.26457,0.226772 -0.22677,0.226771 -0.22677,0.226772 -0.26457,0.264567 -0.22677,0.226772 -0.22677,0.264567 -0.18898,0.302362 -0.22677,0.264567 -0.18897,0.302362 -0.22678,0.302362 -0.18897,0.302362 -0.15118,0.340158 V 2.607874 h -8.54174 v 22.261417 l 0.71811,-0.07559 0.75591,-0.03779 0.71811,-0.0378 0.71811,-0.03779 0.71811,-0.03779 h 0.71811 0.71811 0.71811 0.37795 0.37796 0.41574 0.37796 0.41575 l 0.37795,0.03779 h 0.41575 z"
       style="fill:#002b49;fill-opacity:1;fill-rule:nonzero;stroke:none"
       inkscape:connector-curvature="0" />
  </g>
</svg>
