<?xml version="1.0" encoding="utf-8"?>
<svg xmlns:rdf="http://www.w3.org/1999/02/22-rdf-syntax-ns#" xmlns="http://www.w3.org/2000/svg" xmlns:cc="http://creativecommons.org/ns#" width="1000" height="343">
<desc>Logo of Siemens Energy -- Graphic created by Detmar Owen</desc>
<path id="S" style="fill:#099" d="m68.94,60.1q-19.36-8.71-23.66-11.4-5.17-3.33-5.17-8.6 0-14.09 25.62-14.09 18.2,0 39.41,8.47v-28.93q-28.52-5.55-43.59-5.55-27.33,0-44.34,11.72-17.21,11.83-17.21,34.42 0,17.54 11.82,29.04 9.12,8.72 39.19,21.08 16.75,6.89 20.83,10.76a11.78,11.78 0 0 1 3.98,9.03q0,14.42-27.29,14.42-19.77,0-45.44-8.08v30.07a207.29,207.27 0 0 0 47.23,5.54q27.76,0 45.2-10.53 21.52-13.01 21.52-37.76 0-17.22-10.98-28.08-9.24-9.15-37.12-21.53z
m72.12,94.82h42.54v-152.27h-42.54z
m122.56-65.22h59.28v-25.13h-59.28v-34.38h68.1v-27.54h-109.1v152.27h110.86v-29.09h-69.86z
m191.1,10.24-38.32-97.29h-55.15v152.27h29.97v-107.81l43.8,109.36h26.37l44.67-109.36v107.81h40.33v-152.27h-52.39z
m171.7-10.24h59.28v-25.13h-59.28v-34.38h68.1v-27.54h-109.1v152.27h110.85v-29.09h-69.85z
m199.46,14.88l-52.3-101.93h-49.31v152.27h29.98v-103.31l53.69,103.31h47.91v-152.27h-29.97z
m126.02-44.48q-19.35-8.71-23.66-11.4-5.17-3.33-5.17-8.6 0-14.09 25.62-14.09 18.2,0 39.41,8.47v-28.93q-28.52-5.55-43.59-5.55-27.33,0-44.34,11.72-17.21,11.83-17.21,34.42 0,17.54 11.82,29.04 9.12,8.72 39.19,21.08 16.76,6.89 20.83,10.76a11.78,11.78 0 0 1 3.98,9.03q0,14.42-27.29,14.42-19.77,0-45.44-8.08v30.07a207.29,207.27 0 0 0 47.23,5.54q27.76,0 45.2-10.53 21.52-13.01 21.52-37.76 0-17.22-10.98-28.08-9.24-9.15-37.12-21.53z"/>
<path id="E" style="fill:#641e8c" d="m123.9,189.25c-13.3-.75-26.8-1.25-40.4-1.25s-27.1,.5-40.4,1.25a45.5,45.5 0 0 0-43.1,45.25v62a45.5,45.5 0 0 0 43.1,45.25c13.3,.75 26.8,1.25 40.4,1.25s27.1-.5 40.4-1.25a45.5,45.5 0 0 0 43.1-45.25v-3.5h-19.5v3.5a25.9,25.9 0 0 1-24.4,25.7c-13.1,.8-26.3,1.3-39.6,1.3s-26.5-.5-39.6-1.3a25.9,25.9 0 0 1-24.4-25.7v-62a25.9,25.9 0 0 1 24.4-25.7c13.1-.8 26.3-1.3 39.6-1.3s26.5,.5 39.6,1.3a25.9,25.9 0 0 1 24.4,25.7v21h-80.5v20h100v-41a45.5,45.5 0 0 0-43.1-45.25z
m175.15,.25c-10.75-.9-21.75-1.5-32.7-1.5s-21.95,.6-32.69,1.5a45.5,45.5 0 0 0-41.31,45v107h19.5v-107a26,26 0 0 1 24.28-25.78c9.94-.69 20.02-1.22 30.22-1.22s20.29,.5 30.23,1.22a26,26 0 0 1 24.27,25.78v107h19.5v-107a45.5,45.5 0 0 0-41.3-45z
m189.95-.25c-13.3-.75-26.8-1.25-40.4-1.25s-27.1,.5-40.4,1.25a45.5,45.5 0 0 0-43.1,45.25v62a45.5,45.5 0 0 0 43.1,45.25c13.3,.75 26.8,1.25 40.4,1.25s27.1-.5 40.4-1.25a45.5,45.5 0 0 0 43.1-45.25v-3.5h-19.5v3.5a25.9,25.9 0 0 1-24.4,25.7c-13.1,.8-26.3,1.3-39.6,1.3s-26.5-.5-39.6-1.3a25.9,25.9 0 0 1-24.4-25.7v-62a25.9,25.9 0 0 1 24.4-25.7c13.1-.8 26.3-1.3 39.6-1.3s26.5,.5 39.6,1.3a25.9,25.9 0 0 1 24.4,25.7v21h-80.5v20h100v-41a45.5,45.5 0 0 0-43.1-45.25z
m70.59,45.24v107h19.5v-107c0-13.67 11.22-25.5 24.77-25.5h39.73v-19.51h-40.41c-21.24,.02-43.59,18.44-43.59,45.01z
m221.91-45.24c-13.3-.75-26.8-1.25-40.4-1.25s-27.1,.5-40.4,1.25a45.5,45.5 0 0 0-43.1,45.25v62a45.5,45.5 0 0 0 43.1,45.25c13.3,.75 26.8,1.25 40.4,1.25s27.1-.5 40.4-1.25a45.5,45.5 0 0 0 43.1-45.25v-41h-100v20h80.5v21a25.9,25.9 0 0 1-24.4,25.7c-13.1,.8-26.3,1.3-39.6,1.3s-26.5-.5-39.6-1.3a25.9,25.9 0 0 1-24.4-25.7v-62a25.9,25.9 0 0 1 24.4-25.7c13.1-.8 26.3-1.3 39.6-1.3s26.5,.5 39.6,1.3a25.9,25.9 0 0 1 24.4,25.7v3.5h19.5v-3.5a45.5,45.5 0 0 0-43.1-45.25z
m218.5,.25h-24.42l-66.25,87.9a44.8,44.8 0 0 0-9.06,27.1v37h19.5v-37a25.4,25.4 0 0 1 5.15-15.37z
m-147.73,0h-25.46l69.46,82.77 12.04-15.99z"/>
</svg>